<?xml version="1.0" standalone="no"?>
<!DOCTYPE svg PUBLIC "-//W3C//DTD SVG 20010904//EN"
 "http://www.w3.org/TR/2001/REC-SVG-20010904/DTD/svg10.dtd">
<svg version="1.0" xmlns="http://www.w3.org/2000/svg"
 width="292.000000pt" height="301.000000pt" viewBox="0 0 292.000000 301.000000"
 preserveAspectRatio="xMidYMid meet">

<g transform="translate(0.000000,301.000000) scale(0.100000,-0.100000)"
fill="#000000" stroke="none">
<path d="M1851 2874 c-28 -15 -63 -56 -74 -87 -1 -4 -20 2 -42 13 -59 30 -167
28 -220 -5 -51 -32 -118 -33 -211 -4 -95 30 -132 28 -185 -8 -60 -41 -105 -54
-203 -58 -47 -2 -95 -9 -107 -15 -16 -9 -32 -9 -65 0 -24 7 -70 11 -103 8 -67
-5 -73 -8 -271 -187 -63 -56 -125 -108 -137 -114 -19 -8 -23 -18 -23 -58 0
-68 36 -107 105 -117 38 -5 51 -12 53 -26 6 -30 -38 -107 -88 -156 -28 -28
-63 -78 -89 -130 -23 -47 -62 -105 -86 -130 -69 -71 -91 -166 -64 -275 9 -36
7 -57 -10 -126 -37 -146 -30 -179 68 -314 29 -39 51 -80 51 -95 1 -95 68 -273
130 -344 106 -120 258 -159 399 -101 35 14 65 24 68 21 3 -2 -1 -30 -8 -62
l-13 -58 72 -66 c181 -168 413 -244 742 -243 189 0 298 18 471 79 480 167 814
553 897 1036 14 83 15 112 4 202 -23 207 -94 329 -318 544 -134 128 -144 140
-144 174 0 37 38 150 104 308 94 225 46 307 -192 331 -53 6 -124 8 -157 4 -55
-6 -69 -3 -145 30 -104 44 -162 52 -209 29z m169 -61 c53 -27 61 -28 215 -28
143 0 166 -3 217 -23 88 -36 134 -99 112 -156 -5 -14 -12 -11 -40 14 -46 40
-76 46 -128 26 -80 -31 -100 -62 -145 -239 -48 -189 -69 -231 -135 -272 -82
-50 -182 -33 -230 40 -35 54 -94 502 -76 580 20 87 104 110 210 58z m-283 -58
c35 -15 36 -15 29 -64 -7 -51 41 -422 65 -500 14 -47 61 -98 106 -117 39 -17
131 -18 170 -3 15 5 43 25 61 42 56 53 75 98 152 364 35 124 93 168 169 128
50 -25 53 -65 15 -181 -46 -143 -107 -234 -155 -234 -26 0 -24 -18 4 -31 81
-37 78 -197 -5 -363 -17 -34 -41 -75 -54 -92 -19 -26 -21 -34 -10 -43 18 -15
38 8 75 91 59 132 81 206 81 274 0 36 4 64 10 64 17 0 69 -81 81 -124 6 -23 9
-73 7 -112 -5 -80 -43 -172 -104 -255 -32 -44 -34 -49 -15 -49 41 0 92 86 142
237 13 40 27 73 30 73 13 0 42 -151 47 -243 11 -214 -62 -446 -208 -663 -92
-135 -261 -254 -495 -349 -96 -38 -225 -77 -225 -67 0 4 34 34 75 66 94 73
209 193 265 276 116 170 173 381 133 486 -13 35 -23 7 -23 -67 0 -244 -123
-467 -353 -640 -109 -82 -242 -148 -315 -155 -100 -11 -233 34 -293 99 -44 47
-146 201 -185 278 -49 99 -94 212 -164 413 -74 216 -106 283 -157 324 -65 53
-78 69 -107 127 -16 30 -32 55 -37 55 -4 0 -13 -18 -19 -40 -6 -21 -15 -42
-22 -46 -11 -7 -190 -6 -197 2 -2 2 -7 20 -10 41 -9 56 -26 50 -51 -17 -12
-33 -36 -77 -51 -97 -41 -51 -41 -114 0 -153 l30 -27 -21 -43 c-20 -40 -21
-48 -10 -144 31 -258 153 -573 250 -640 49 -34 87 -35 205 -7 134 32 170 26
108 -18 -45 -33 -146 -54 -219 -48 -180 17 -294 147 -351 402 -16 71 -28 97
-76 167 -71 100 -77 135 -45 260 18 70 20 92 11 124 -24 87 -1 179 68 266 23
29 59 82 80 118 47 78 61 86 61 32 0 -35 6 -45 37 -71 49 -41 70 -40 89 4 23
56 48 76 86 68 44 -8 53 -18 53 -56 0 -25 5 -33 22 -35 17 -2 39 13 83 57 93
94 138 106 251 71 73 -22 106 -53 347 -322 122 -135 187 -197 197 -186 3 2
-65 78 -151 169 -86 90 -185 200 -219 245 -35 44 -80 89 -99 99 -20 11 -35 24
-33 28 1 5 29 25 61 45 57 36 59 36 70 17 23 -41 75 -82 132 -104 118 -45 184
-38 256 27 39 35 39 35 69 18 16 -9 29 -13 29 -8 0 19 -134 168 -167 185 -26
14 -52 18 -94 15 -40 -2 -59 1 -59 8 0 24 112 113 192 152 73 36 128 54 243
78 l30 7 -40 18 c-27 13 -51 17 -75 13 -96 -16 -289 -135 -523 -323 -75 -60
-147 -113 -159 -117 -39 -12 -101 -6 -127 14 -74 55 -84 124 -33 214 40 69 41
90 3 54 -25 -24 -63 -95 -84 -157 -7 -23 -92 -34 -144 -20 -47 13 -89 43 -98
71 -14 44 76 169 232 321 146 142 160 151 246 156 46 3 100 15 151 35 98 37
177 40 254 9 66 -26 83 -26 132 -1 97 50 205 59 287 25z m-1004 -77 c22 -11
21 -12 -197 -240 -117 -123 -157 -159 -182 -164 -45 -8 -72 3 -95 39 -32 54
-26 70 44 114 34 22 113 86 175 144 62 57 128 109 145 116 32 12 77 9 110 -9z
m685 -599 c2 -14 -4 -31 -12 -39 -14 -11 -15 -9 -10 20 5 22 3 35 -7 42 -11 7
-9 8 6 6 13 -2 21 -12 23 -29z m-238 -4 c0 -27 -12 -32 -29 -12 -8 10 -7 17 1
25 19 19 28 14 28 -13z m-455 -45 c3 -5 2 -10 -4 -10 -5 0 -13 5 -16 10 -3 6
-2 10 4 10 5 0 13 -4 16 -10z m1949 -147 c140 -161 199 -319 200 -543 1 -119
-1 -130 -36 -232 -167 -484 -523 -805 -1006 -909 -125 -26 -403 -37 -522 -20
-232 34 -461 159 -529 288 -17 34 -13 88 10 128 36 61 47 61 156 7 182 -92
339 -132 513 -134 122 -2 221 16 390 72 334 109 574 297 704 550 87 168 122
333 113 529 -4 104 -9 128 -46 230 -22 63 -41 116 -41 118 0 15 28 -10 94 -84z
m-2159 -218 c76 -20 152 -62 180 -100 13 -16 51 -103 85 -193 118 -313 264
-632 343 -749 20 -29 32 -53 28 -53 -5 0 -52 20 -105 45 -146 67 -193 79 -306
72 -52 -3 -116 -12 -142 -21 -41 -15 -51 -15 -81 -2 -43 18 -65 46 -125 164
-99 193 -152 373 -152 515 0 92 5 97 128 127 51 13 90 25 88 27 -2 2 -41 -2
-87 -8 -71 -10 -89 -10 -114 2 -54 26 -44 118 17 154 63 37 150 44 243 20z"/>
</g>
</svg>
