<svg width="1000" height="1000" viewBox="0 0 1000 1000" fill="none" xmlns="http://www.w3.org/2000/svg">
<path d="M851.303 283.985C870.295 384.4 822.176 463.549 795.742 490.572L358 453C308.921 429.681 211.893 379.096 216.136 372.631C220.378 366.165 218.914 320.911 216.136 305L265.888 226.908L309.832 179.681L284.577 159.224L261.09 150.89V125.888L353 50.1221L381 51.5L436.108 50.1221L489.144 32.6961L549.251 40.7777L592.438 27.3925C607.254 29.5813 637.846 33.7063 641.685 32.6961C646.484 31.4333 662.394 12.4919 672.749 12.2394C683.104 11.9868 709.369 23.3517 721.239 25.1195C733.109 26.8874 789.681 29.1604 799.53 29.1604C809.38 29.1604 836.908 49.3645 839.686 58.7089C842.464 68.0533 823.75 114.326 799 181C799 192.112 823.27 199.128 851.303 283.985Z" fill="white"/>
<path d="M844.781 260.935C842.891 255.267 838.167 242.514 835.805 226.927C836.592 226.14 839.49 225.699 844.781 230.234C851.394 235.902 865.567 252.906 869.818 257.156C874.07 261.407 893.439 290.22 897.218 297.777C900.998 305.334 909.973 329.423 913.753 351.15C917.532 372.877 912.335 412.553 911.391 421.527C910.446 430.501 901.942 455.535 891.549 480.096C881.156 504.657 855.174 542.443 843.836 557.558C832.498 572.673 804.153 593.455 802.736 594.4C801.319 595.344 796.122 491.432 796.122 488.598C796.122 485.764 799.901 484.819 802.736 481.513C805.57 478.207 828.719 440.42 833.915 429.557C839.112 418.693 851.394 381.379 853.756 364.375C856.118 347.371 854.701 306.279 854.229 300.138C853.756 293.998 846.67 266.603 844.781 260.935Z" fill="#6DB058"/>
<path d="M658.304 8.08103C651.427 11.7624 642.831 21.8247 640.13 29.4328C639.884 30.4145 635.218 28.9419 629.815 26.2423C615.325 18.8796 588.802 19.3705 575.785 27.4694C563.26 35.3229 546.806 35.5684 523.966 28.4511C500.635 21.0884 491.548 21.5793 478.532 30.4145C463.796 40.4769 452.745 43.6674 428.677 44.649C417.134 45.1399 405.346 46.8579 402.399 48.3304C398.47 50.5392 394.54 50.5392 386.436 48.3304C380.541 46.6124 369.244 45.6307 361.14 46.367C344.685 47.5941 343.212 48.3304 294.585 92.2612C279.113 106.005 263.886 118.767 260.939 120.239C256.273 122.203 255.291 124.657 255.291 134.474C255.291 151.163 264.132 160.734 281.078 163.188C290.41 164.416 293.603 166.134 294.094 169.569C295.567 176.932 284.761 195.83 272.482 207.855C265.605 214.727 257.01 226.998 250.624 239.76C244.976 251.295 235.398 265.53 229.504 271.665C212.558 289.09 207.155 312.406 213.786 339.157C215.996 347.992 215.505 353.146 211.33 370.08C202.243 405.912 203.962 414.011 228.03 447.143C235.152 456.714 240.555 466.777 240.555 470.458C240.801 493.773 257.255 537.459 272.482 554.884C298.514 584.334 335.844 593.906 370.472 579.671C379.068 576.235 386.436 573.781 387.172 574.517C387.909 575.008 386.927 581.88 385.208 589.734L382.015 603.968L399.697 620.166C444.149 661.397 501.126 680.049 581.925 679.804C628.342 679.804 655.111 675.386 697.598 660.416C815.481 619.43 897.508 524.697 917.892 406.157C921.33 385.787 921.576 378.67 918.874 356.582C913.226 305.779 895.789 275.838 840.777 223.072C807.868 191.657 805.412 188.712 805.412 180.368C805.412 171.287 814.744 143.555 830.953 104.778C854.039 49.5575 842.25 29.4328 783.8 23.5427C770.784 22.0702 753.347 21.5793 745.242 22.561C731.735 24.0335 728.297 23.2972 709.632 15.1983C684.09 4.39966 669.846 2.43631 658.304 8.08103ZM699.808 23.0518C712.824 29.6783 714.789 29.9237 752.61 29.9237C787.729 29.9237 793.378 30.66 805.903 35.5684C827.515 44.4036 838.812 59.8653 833.409 73.8544C832.181 77.2903 830.462 76.5541 823.585 70.4185C812.288 60.6016 804.921 59.1291 792.15 64.0375C772.503 71.6456 767.591 79.2537 756.539 122.694C744.751 169.079 739.594 179.386 723.385 189.449C703.246 201.72 678.687 197.548 666.899 179.632C658.304 166.379 643.814 56.4294 648.234 37.2864C653.146 15.9345 673.776 10.2898 699.808 23.0518ZM630.306 37.2864C638.902 40.9677 639.148 40.9677 637.428 52.9935C635.709 65.51 647.498 156.562 653.392 175.705C656.83 187.24 668.373 199.756 679.424 204.419C689.002 208.592 711.596 208.837 721.174 205.156C724.858 203.929 731.735 199.02 736.155 194.848C749.908 181.841 754.575 170.797 773.485 105.514C782.081 75.0816 796.325 64.2829 814.99 74.0998C827.269 80.2354 828.006 90.0523 818.674 118.521C807.376 153.617 792.395 175.95 780.607 175.95C774.222 175.95 774.713 180.368 781.59 183.559C801.482 192.639 800.746 231.907 780.362 272.647C776.187 280.992 770.292 291.054 767.1 295.226C762.434 301.607 761.942 303.57 764.644 305.779C769.064 309.461 773.976 303.816 783.063 283.446C797.553 251.05 802.956 232.889 802.956 216.2C802.956 207.365 803.938 200.493 805.412 200.493C809.587 200.493 822.357 220.372 825.305 230.925C826.778 236.57 827.515 248.841 827.024 258.413C825.796 278.046 816.463 300.625 801.482 320.995C793.623 331.794 793.132 333.021 797.798 333.021C807.868 333.021 820.393 311.915 832.672 274.856C835.865 265.039 839.303 256.94 840.04 256.94C843.233 256.94 850.355 293.999 851.583 316.578C854.284 369.098 836.356 426.037 800.5 479.293C777.906 512.425 736.401 541.631 678.933 564.946C655.356 574.272 623.675 583.844 623.675 581.389C623.675 580.408 632.025 573.045 642.095 565.191C665.18 547.276 693.423 517.825 707.176 497.455C735.664 455.733 749.663 403.948 739.839 378.179C736.647 369.589 734.191 376.461 734.191 394.622C734.191 454.506 703.983 509.235 647.498 551.693C620.728 571.818 588.065 588.016 570.137 589.734C545.578 592.433 512.914 581.389 498.179 565.437C487.373 553.902 462.323 516.107 452.745 497.209C440.711 472.912 429.659 445.18 412.468 395.849C394.294 342.838 386.436 326.395 373.911 316.332C357.947 303.325 354.755 299.398 347.632 285.164C343.703 277.801 339.774 271.665 338.546 271.665C337.563 271.665 335.353 276.083 333.879 281.482C332.406 286.636 330.196 291.79 328.476 292.772C325.775 294.49 281.814 294.244 280.095 292.281C279.604 291.79 278.376 287.372 277.639 282.219C275.429 268.475 271.254 269.947 265.114 286.391C262.167 294.49 256.273 305.288 252.589 310.197C242.52 322.713 242.52 338.175 252.589 347.747L259.957 354.373L254.799 364.926C249.888 374.743 249.642 376.707 252.344 400.267C259.957 463.586 289.919 540.895 313.741 557.338C325.775 565.682 335.107 565.928 364.087 559.056C396.996 551.202 405.837 552.675 390.611 563.473C379.559 571.572 354.755 576.726 336.826 575.254C292.62 571.082 264.623 539.177 250.624 476.594C246.695 459.169 243.748 452.788 231.96 435.608C214.523 411.066 213.049 402.476 220.908 371.798C225.329 354.618 225.82 349.219 223.61 341.366C217.715 320.014 223.364 297.435 240.31 276.083C245.958 268.966 254.799 255.958 259.957 247.123C271.5 227.98 274.938 226.017 274.938 239.27C274.938 247.859 276.411 250.314 284.025 256.695C296.059 266.757 301.216 266.512 305.882 255.713C311.531 241.969 317.67 237.061 327.003 239.024C337.809 240.988 340.019 243.442 340.019 252.768C340.019 258.903 341.247 260.867 345.422 261.358C349.597 261.848 355 258.167 365.806 247.369C388.646 224.299 399.697 221.354 427.449 229.943C445.377 235.343 453.482 242.951 512.669 308.97C542.631 342.102 558.594 357.318 561.05 354.618C561.787 354.128 545.087 335.475 523.966 313.142C502.845 291.054 478.532 264.057 470.182 253.013C461.586 242.215 450.535 231.171 445.868 228.716C440.957 226.017 437.273 222.826 437.764 221.845C438.009 220.617 444.886 215.709 452.745 210.8C466.743 201.965 467.235 201.965 469.936 206.628C475.585 216.691 488.355 226.753 502.354 232.152C531.334 243.196 547.543 241.478 565.225 225.526C574.803 216.936 574.803 216.936 582.171 221.108C586.1 223.317 589.293 224.299 589.293 223.072C589.293 218.409 556.384 181.841 548.279 177.668C541.894 174.232 535.509 173.251 525.194 173.987C515.37 174.478 510.704 173.742 510.704 172.024C510.704 166.133 538.21 144.291 557.857 134.719C575.785 125.884 589.293 121.466 617.536 115.576L624.903 113.858L615.08 109.441C608.449 106.25 602.555 105.269 596.66 106.25C573.084 110.177 525.685 139.382 468.217 185.522C449.798 200.247 432.115 213.255 429.168 214.236C419.59 217.181 404.364 215.709 397.978 210.8C379.805 197.302 377.349 180.368 389.874 158.28C399.697 141.346 399.943 136.192 390.611 145.027C384.471 150.917 375.138 168.342 369.981 183.559C368.262 189.203 347.387 191.903 334.616 188.467C323.073 185.277 312.759 177.914 310.548 171.042C307.11 160.243 329.213 129.565 367.525 92.2612C403.381 57.4111 406.82 55.2022 427.94 53.9751C439.237 53.2388 452.499 50.2938 465.024 45.3853C489.092 36.3047 508.494 35.5684 527.404 43.1765C543.613 49.5575 547.788 49.5575 559.822 43.4219C583.644 31.1507 610.168 28.9419 630.306 37.2864ZM383.734 56.1839C389.137 58.8836 388.892 59.129 335.353 115.085C306.619 145.273 296.795 154.108 290.656 155.335C279.604 157.298 272.973 154.599 267.325 145.763C259.466 132.511 260.939 128.584 278.131 117.785C286.481 112.386 305.882 96.6787 321.109 82.4442C336.335 68.4551 352.544 55.6931 356.719 53.9751C364.578 51.03 375.63 51.7663 383.734 56.1839ZM551.963 203.192C552.454 206.628 550.981 210.8 549.016 212.764C545.578 215.464 545.332 214.973 546.56 207.855C547.788 202.456 547.297 199.266 544.841 197.548C542.14 195.83 542.631 195.584 546.315 196.075C549.507 196.566 551.472 199.02 551.963 203.192ZM493.513 204.174C493.513 210.8 490.566 212.028 486.391 207.119C484.426 204.665 484.672 202.947 486.636 200.984C491.302 196.321 493.513 197.548 493.513 204.174ZM381.769 215.218C382.506 216.445 382.261 217.672 380.787 217.672C379.559 217.672 377.594 216.445 376.858 215.218C376.121 213.746 376.366 212.764 377.84 212.764C379.068 212.764 381.033 213.746 381.769 215.218ZM860.424 251.295C894.806 290.808 909.296 329.585 909.542 384.56C909.787 413.765 909.296 416.465 900.701 441.498C859.687 560.283 772.257 639.064 653.637 664.588C622.939 670.969 554.665 673.668 525.439 669.496C468.463 661.152 412.223 630.474 395.522 598.814C391.347 590.47 392.33 577.217 397.978 567.4C406.82 552.429 409.521 552.429 436.29 565.682C480.988 588.261 519.545 598.078 562.278 598.569C592.24 599.06 616.553 594.642 658.058 580.898C740.085 554.147 799.026 508.008 830.953 445.916C852.319 404.685 860.915 364.19 858.705 316.087C857.722 290.563 856.494 284.673 847.408 259.64C842.005 244.178 837.338 231.171 837.338 230.68C837.338 226.998 844.215 233.134 860.424 251.295ZM330.196 304.798C348.86 309.706 367.525 320.014 374.402 329.34C377.594 333.267 386.927 354.618 395.277 376.707C424.256 453.524 460.113 531.814 479.514 560.528C484.426 567.646 487.373 573.536 486.391 573.536C485.163 573.536 473.62 568.627 460.604 562.492C424.748 546.048 413.205 543.103 385.453 544.821C372.683 545.558 356.965 547.766 350.58 549.975C340.51 553.657 338.054 553.657 330.687 550.466C320.126 546.048 314.723 539.177 299.988 510.217C275.675 462.85 262.658 418.674 262.658 383.824C262.658 361.245 263.886 360.018 294.094 352.655C306.619 349.465 316.197 346.519 315.706 346.029C315.215 345.538 305.637 346.519 294.339 347.992C276.903 350.446 272.482 350.446 266.342 347.501C253.08 341.12 255.536 318.541 270.517 309.706C285.989 300.625 307.356 298.907 330.196 304.798Z" fill="black"/>
<path fill-rule="evenodd" clip-rule="evenodd" d="M631.42 177.755C630.43 180.23 629.733 185.382 627.46 187.655C625.187 189.928 621.025 190.625 618.45 192.814C615.876 195.003 611.62 201.02 610.135 203.495C608.65 205.97 591.325 254.975 588.85 257.945C586.375 260.915 578.455 272.795 572.515 276.755C566.575 280.715 562.615 284.675 550.735 289.13C538.855 293.585 515.492 295.818 499.587 294.22C483.415 292.595 464.001 287.1 456.284 284.581C446.206 280.172 424.997 268.738 418.075 258.44C409.975 246.39 407.68 244.085 404.71 234.68C404.072 232.661 403.024 226.908 402.607 220.344C401.649 215.471 400.952 210.799 400.255 207.455C399.94 205.093 397.475 200.067 395.816 198.617C392.335 195.575 390.147 195.783 386.367 196.255C385.514 196.362 379.415 197.591 370.028 198.25L354.117 182.592C350.338 179.601 341.599 173.371 334.418 172.238C327.237 171.104 316.293 171.851 311.726 172.639C305.585 174.843 292.263 179.912 288.106 182.558C283.948 185.203 282.036 190.859 281.878 192.59L282.392 199.008C281.635 199.008 278.637 205.706 276.836 205.827C276.836 205.827 275.565 187.034 274.807 186.277C274.049 185.519 270.65 185.01 270.07 184.19C269.49 183.37 269.682 178.955 269.682 178.955L271.571 173.583L283.908 166.681L296.609 161.234L312.671 158.941C318.97 159.099 333.93 159.886 343.378 161.775C352.826 163.664 370.62 170.434 378.336 173.583C381.486 174.528 390.714 176.039 402.429 174.528C414.145 173.016 441.592 164.966 453.875 160.873C460.804 159.771 481.593 157.354 507.67 156.965C540.835 156.47 596.77 156.47 613.125 157.996C621.064 158.737 623.048 158.886 624.985 158.945C626.892 159.003 629.258 159.988 630.43 160.925C632.32 162.436 633.439 161.915 633.439 164.609C633.439 164.609 632.41 175.28 631.42 177.755ZM418.019 220.344L416.602 204.285L420.538 195.725L425.084 187.643C426.816 185.439 431.719 179.44 441.167 174.528C450.616 169.616 466.898 168.197 473.826 168.197C487.78 166.996 516.564 166.593 519.588 166.971C522.611 167.349 535.266 167.753 543.026 168.702C548.399 170.279 558.609 173.016 561.632 174.528C561.855 174.639 562.092 174.755 562.343 174.878C566.358 176.844 573.943 180.557 581.946 193.893C588.749 205.229 581.001 232.624 576.277 244.905C572.233 255.194 554.148 275.404 542.432 277.671C527.788 280.505 491.417 281.712 479.547 279.439C470.586 277.723 453.763 271.683 445.891 266.632C437.118 261.003 425.272 241.471 421.965 232.969C419.32 226.168 418.019 221.761 418.019 220.344ZM274.878 176.417C274.563 176.732 274.053 178.072 275.565 179.205C277.454 180.622 280.547 181.38 282.909 179.963C283.39 179.674 284.23 179.435 284.657 179.205C286.321 178.305 287.811 177.174 287.435 175.669C286.962 173.78 283.988 172.639 281.626 172.639C279.264 172.639 276.295 174.528 275.823 175C275.445 175.378 275.036 176.102 274.878 176.417ZM606.921 167.692C611.708 168.039 621.064 170.477 621.064 173.5C621.064 176.93 612.549 177.331 607.931 177.289C607.461 177.284 605.243 177.206 603.133 176.784C598.082 175.773 592.021 174.763 592.021 171.48C592.021 168.702 602.123 167.692 606.921 167.692Z" fill="#6DB058"/>
<path d="M620.855 173.576C620.829 173.974 620.564 174.449 619.853 174.954C619.147 175.455 618.099 175.912 616.749 176.279C614.057 177.012 610.335 177.344 606.229 177.076C602.123 176.807 598.476 175.994 595.902 174.917C594.612 174.377 593.631 173.787 592.997 173.199C592.358 172.606 592.156 172.101 592.182 171.703C592.208 171.305 592.474 170.83 593.185 170.325C593.89 169.825 594.939 169.368 596.289 169C598.981 168.267 602.703 167.935 606.809 168.203C610.914 168.472 614.562 169.286 617.136 170.362C618.426 170.902 619.406 171.492 620.04 172.08C620.68 172.673 620.881 173.178 620.855 173.576Z" stroke="black" stroke-width="1.5"/>
<path d="M287.3 175.565C287.437 176.386 287.036 177.338 286.019 178.223C285.014 179.097 283.494 179.813 281.693 180.114C279.892 180.416 278.221 180.233 276.986 179.733C275.737 179.228 275.047 178.458 274.91 177.637C274.773 176.817 275.174 175.864 276.191 174.98C277.196 174.105 278.716 173.389 280.517 173.088C282.318 172.787 283.989 172.969 285.224 173.469C286.474 173.975 287.163 174.745 287.3 175.565Z" stroke="black" stroke-width="1.5"/>
<path d="M442.285 262.824C465.339 285.874 522.995 281.808 542.437 277.467C561.879 273.125 583.537 242.987 584.481 207.562C585.237 179.222 551.727 168.988 534.878 167.414C512.99 166.469 464.489 166.186 445.592 172.61C426.696 179.033 418.507 196.383 416.775 204.256C415.673 214.174 419.232 239.775 442.285 262.824Z" stroke="black" stroke-width="1.5"/>
<path d="M370.192 198.623C366.413 193.427 351.119 179.617 345.31 176.765C339.501 173.913 336.036 171.668 328.434 171.193C320.875 170.72 313.769 171.919 310.482 172.61C307.195 173.3 291.372 180.327 287.806 183.001C285.917 184.418 284.5 186.307 283.082 188.669C281.773 190.85 282.137 201.353 282.137 203.715" stroke="black" stroke-width="1.5"/>
<path d="M276.941 206.549C277.319 209.572 380.294 196.855 381.344 196.698C382.394 196.542 387.863 195.565 393.154 196.698C398.445 197.832 402.013 212.513 403.024 224.888C404.034 237.263 412.901 265.092 450.316 281.718C497.085 302.5 540.074 293.054 549.05 289.747C568.281 282.664 585.246 269.909 594.402 245.821C602.663 224.083 607.157 206.145 613.771 197.643C615.188 195.596 619.199 191.146 624.49 189.635C631.104 187.746 633.612 168.359 633.612 165.052C633.612 162.407 633.612 162.508 628.3 159.73C622.987 156.952 562.82 157.3 526.847 156.55C473.464 157.023 459.292 159.384 449.844 161.746C436.459 166.154 407.893 174.499 402.602 174.499C395.989 174.499 392.209 175.443 382.761 174.499C373.313 173.554 365.754 166.942 346.385 162.691C330.89 159.29 316.623 159.069 311.427 159.384C306.703 159.699 298.857 160.593 295.184 161.75C291.396 162.943 274.91 170.927 272.217 173.082C269.523 175.236 268.91 182.056 269.854 183.945C270.799 185.835 273.161 184.89 274.579 185.835C275.996 186.779 276.468 202.77 276.941 206.549ZM276.941 206.549L286.389 193.323" stroke="black"/>
<path d="M765.888 339.814C766.36 340.286 766.833 347.844 766.833 347.844L377.565 455.535L356.306 457.924C356.5 458.5 343.173 457.046 322.765 444.199C309.146 435.626 238.649 397.25 179.586 364.81C150.14 348.638 129.245 336.591 108.29 325.172C109.707 322.81 111.972 322.231 113.486 321.866C115 321.5 115.921 321.231 118.21 321.866C120.5 322.5 140.099 333.831 150.807 339.814C150.807 339.814 150.272 301.01 150.807 300.435C151.341 299.861 177.862 352.707 201.355 363.903C213.784 370.261 336.5 430.335 349.145 436.252C358.811 440.774 357.884 451.045 356.911 455.635C357.706 452.051 358.463 449.112 374.025 440.42C392.713 429.982 442.234 412.005 569.86 373.432C697.485 334.859 703.057 312.419 703.529 312.891C704.002 313.364 706.364 353.984 706.836 354.456C707.309 354.929 765.415 339.342 765.888 339.814Z" fill="#F1EDC8"/>
<path d="M766.833 347.844C766.833 347.844 766.36 340.286 765.888 339.814C765.415 339.342 707.309 354.929 706.836 354.456M766.833 347.844C649.989 375.239 411.484 432.202 392.21 440.893M766.833 347.844L377.565 455.535L356.306 457.924M706.836 354.456C706.364 353.984 704.002 313.364 703.529 312.891C703.057 312.419 697.485 334.859 569.86 373.432C442.234 412.005 392.713 429.982 374.025 440.42C355.336 450.858 358 453 356.306 457.924M706.836 354.456C656.131 367.209 538.374 396.683 472.992 412.553M356.306 457.924C356.306 457.924 361.79 442.169 349.145 436.252C336.5 430.335 213.784 370.261 201.355 363.903M356.306 457.924C356.5 458.5 343.173 457.046 322.765 444.199C309.146 435.626 238.649 397.25 179.586 364.81M201.355 363.903C181.615 354.496 150.807 339.814 150.807 339.814M201.355 363.903C177.862 352.707 151.341 299.861 150.807 300.435C150.272 301.01 150.807 339.814 150.807 339.814M150.807 339.814C140.099 333.831 120.5 322.5 118.21 321.866C115.921 321.231 115 321.5 113.486 321.866C111.972 322.231 109.707 322.81 108.29 325.172C129.245 336.591 150.14 348.638 179.586 364.81M179.586 364.81C179.901 364.12 184.924 364.717 193.796 368.626C202.668 372.536 330.192 439.287 332.081 440.42" stroke="black"/>
<path d="M349.391 458.336C352.868 459.247 372.742 457.832 374.917 456.92C377.092 456.007 771.048 347.416 774.357 346C777.666 344.584 783.812 347.416 786.175 352.608C788.539 357.8 820.845 885.827 819.27 890.551C817.172 896.845 813.129 896.691 808.877 898.58C807.016 899.407 607.648 946.227 508.221 969.985C495.616 972.659 466.624 979.425 463.544 980.359C460.463 981.292 450.789 987.444 448.66 989.809C446.531 992.174 397.406 996.418 388.43 994.529C379.454 992.639 144.665 802.29 141.358 795.678C138.052 789.065 79 325.71 79 323.821V323.82C79 321.931 79 319.097 81.3621 317.208C83.7241 315.319 87.031 315.319 90.3453 316.736C93.6597 318.153 345.913 457.424 349.391 458.336Z" fill="#547C47" stroke="black" stroke-width="5"/>
<path d="M800.522 887.252L472.31 963.439C469.401 964.114 466.552 962.105 466.212 959.138L409.983 469.055C409.703 466.616 411.236 464.334 413.6 463.671L768.407 364.164C771.482 363.302 774.565 365.503 774.749 368.69L804.383 882.093C804.523 884.524 802.893 886.702 800.522 887.252Z" fill="#447136"/>
<path d="M791.644 879.037L481.035 950.973C478.133 951.645 475.291 949.647 474.941 946.689L419.197 474.829C418.907 472.378 420.448 470.083 422.826 469.424L761.034 375.663C764.106 374.812 767.18 377.014 767.361 380.197L795.507 873.881C795.646 876.311 794.015 878.488 791.644 879.037Z" fill="#6DB058"/>
<path d="M152.428 789.831L92.5882 342.951C92.0454 338.898 96.3338 335.942 99.9285 337.893L321.407 458.064C322.849 458.847 323.816 460.287 323.993 461.918L378.161 959.443C378.642 963.854 373.566 966.658 370.088 963.905L154.281 793.088C153.264 792.283 152.6 791.116 152.428 789.831Z" fill="#447136"/>
<path d="M157.596 787.665L97.6157 351.792C97.0523 347.698 101.416 344.727 105.019 346.752L313.464 463.916C314.863 464.702 315.799 466.111 315.982 467.705L370.776 944.983C371.282 949.388 366.229 952.223 362.733 949.495L159.474 790.926C158.447 790.125 157.774 788.955 157.596 787.665Z" fill="#6DB058"/>
<path d="M339.952 475.342C339.577 475.72 376.167 814.975 394.275 980.934C394.298 981.14 427.993 980.461 428.462 979.988C428.93 979.515 371.616 475.911 371.328 475.815C370.307 475.473 340.42 474.869 339.952 475.342Z" fill="#6DB058"/>
<path d="M379.034 476.317L388.23 472.294L447.432 974.649L437.086 979.247L379.034 476.317Z" fill="#6DB058"/>
<path d="M473.894 745.144L480.78 743.491L487.604 806.718L513.894 800.407L514.623 807.163L481.447 815.127L473.894 745.144ZM518.787 731.194C520.276 730.836 521.606 731.07 522.777 731.895C523.948 732.72 524.616 733.894 524.78 735.417C524.941 736.907 524.552 738.319 523.614 739.65C522.676 740.982 521.462 741.826 519.973 742.184C518.515 742.534 517.201 742.296 516.03 741.471C514.859 740.646 514.193 739.488 514.032 737.997C513.867 736.475 514.254 735.048 515.193 733.716C516.131 732.385 517.329 731.544 518.787 731.194ZM517.83 753.289L524.391 751.714L529.977 803.476L523.417 805.051L517.83 753.289ZM543.89 800.136L536.147 728.393L542.614 726.84L545.731 755.718C548.091 751.637 550.871 748.351 554.071 745.858C557.267 743.333 560.881 741.587 564.914 740.619C572.079 738.899 578.478 740.096 584.109 744.21C589.768 748.286 593.006 754.114 593.825 761.694C594.632 769.179 592.763 776.184 588.217 782.71C583.67 789.235 577.798 793.362 570.602 795.09C566.476 796.08 562.641 796.074 559.096 795.07C555.55 794.067 552.295 792.066 549.33 789.068L550.357 798.583L543.89 800.136ZM569.397 788.79C573.026 787.919 576.279 786.211 579.154 783.665C582.027 781.089 584.185 777.935 585.628 774.204C587.102 770.466 587.64 766.758 587.243 763.079C586.846 759.4 585.553 756.115 583.363 753.224C581.174 750.333 578.429 748.34 575.128 747.245C571.855 746.111 568.466 745.965 564.961 746.806C561.394 747.663 558.098 749.414 555.074 752.06C552.078 754.666 549.88 757.748 548.482 761.305C547.115 764.855 546.643 768.596 547.068 772.529C547.715 778.523 550.179 783.073 554.46 786.177C558.772 789.275 563.751 790.145 569.397 788.79ZM600.466 733.45L607.12 731.853L607.937 739.417C609.6 735.959 611.454 733.236 613.499 731.249C615.541 729.229 617.756 727.933 620.144 727.359C621.943 726.927 623.93 727.052 626.104 727.735L623.313 734.164C621.883 733.889 620.703 733.863 619.772 734.087C617.601 734.608 615.606 736.03 613.789 738.354C611.968 740.646 610.737 743.837 610.096 747.928C609.608 751.072 609.848 757.131 610.817 766.107L612.707 783.615L606.053 785.212L600.466 733.45ZM682.033 713.868L687.619 765.63L681.198 767.171L680.238 758.275C677.874 762.324 675.079 765.614 671.852 768.146C668.655 770.671 665.041 772.417 661.008 773.385C653.843 775.105 647.431 773.928 641.772 769.852C636.141 765.738 632.914 759.875 632.093 752.263C631.288 744.809 633.159 737.82 637.706 731.294C642.252 724.769 648.124 720.642 655.32 718.914C659.477 717.916 663.328 717.919 666.873 718.923C670.45 719.919 673.705 721.92 676.638 724.925L675.611 715.41L682.033 713.868ZM656.525 725.214C652.896 726.085 649.645 727.81 646.773 730.386C643.897 732.931 641.722 736.073 640.248 739.811C638.805 743.541 638.282 747.246 638.679 750.925C639.073 754.573 640.364 757.842 642.554 760.733C644.743 763.624 647.475 765.636 650.748 766.77C654.048 767.865 657.466 767.988 661.003 767.139C664.57 766.283 667.852 764.551 670.848 761.945C673.845 759.338 676.027 756.26 677.394 752.71C678.792 749.153 679.279 745.408 678.854 741.475C678.207 735.481 675.728 730.935 671.416 727.838C667.134 724.733 662.171 723.859 656.525 725.214ZM694.27 710.93L700.923 709.333L701.74 716.897C703.403 713.439 705.258 710.716 707.303 708.729C709.344 706.709 711.559 705.413 713.948 704.839C715.747 704.407 717.733 704.532 719.907 705.214L717.116 711.644C715.687 711.369 714.506 711.343 713.576 711.566C711.404 712.088 709.41 713.51 707.592 715.834C705.771 718.126 704.54 721.317 703.9 725.408C703.411 728.551 703.652 734.611 704.62 743.587L706.51 761.095L699.856 762.692L694.27 710.93ZM719.954 704.764L726.84 703.111L748.545 738.801L761.133 694.878L768.065 693.213L745.498 771.16L738.612 772.813L745.918 747.631L719.954 704.764Z" fill="black"/>
<path d="M522.694 511.289L531.644 509.14C535.244 508.276 538.059 508.053 540.088 508.473C542.116 508.871 543.782 509.841 545.088 511.383C546.415 512.921 547.198 514.794 547.436 517.003C547.659 519.065 547.368 521.066 546.565 523.007C545.759 524.927 544.456 526.643 542.656 528.154C545.11 528.406 547.036 528.937 548.432 529.745C549.825 530.533 550.957 531.632 551.827 533.042C552.715 534.426 553.258 536.033 553.455 537.863C553.857 541.586 552.86 545.063 550.465 548.292C548.088 551.496 544.657 553.636 540.172 554.713L527.704 557.706L522.694 511.289ZM527.628 514.766L529.232 529.628L531.825 529.006C534.973 528.25 537.256 527.4 538.673 526.455C540.089 525.49 541.159 524.262 541.885 522.771C542.608 521.259 542.885 519.714 542.715 518.137C542.485 516.012 541.575 514.525 539.985 513.677C538.413 512.803 536.043 512.746 532.875 513.506L527.628 514.766ZM529.737 534.299L531.657 552.096L537.274 550.747C540.587 549.952 542.979 549.043 544.452 548.02C545.922 546.977 547.044 545.639 547.818 544.007C548.612 542.371 548.921 540.732 548.744 539.091C548.521 537.029 547.669 535.389 546.186 534.169C544.704 532.95 542.78 532.333 540.414 532.318C538.83 532.31 536.125 532.765 532.298 533.684L529.737 534.299ZM577.411 498.153L603.592 539.487L598.716 540.658L589.938 527.097L570.372 531.794L564.922 548.771L559.861 549.986L576.3 498.419L577.411 498.153ZM577.918 508.131L571.925 526.824L587.449 523.098L577.918 508.131ZM605.035 530.271L608.637 526.978C611.905 531.438 615.318 533.241 618.877 532.386C620.4 532.02 621.791 531.32 623.051 530.283C624.309 529.226 625.222 528.003 625.79 526.615C626.358 525.227 626.568 523.849 626.42 522.482C626.252 520.925 625.573 519.524 624.383 518.277C622.741 516.556 619.881 514.696 615.803 512.697C611.701 510.682 609.117 509.133 608.051 508.051C606.21 506.249 605.152 504.075 604.877 501.529C604.659 499.51 604.934 497.555 605.701 495.666C606.468 493.777 607.654 492.154 609.26 490.798C610.884 489.415 612.704 488.482 614.72 487.998C616.86 487.484 618.914 487.552 620.884 488.201C622.872 488.825 625.062 490.338 627.453 492.743L624.06 496.503C622.102 494.599 620.477 493.425 619.184 492.98C617.911 492.53 616.565 492.475 615.145 492.816C613.314 493.256 611.873 494.184 610.823 495.602C609.794 497.015 609.369 498.552 609.548 500.214C609.657 501.223 609.968 502.152 610.482 503C610.995 503.848 611.858 504.699 613.068 505.552C613.729 505.997 615.85 507.074 619.433 508.783C623.683 510.805 626.663 512.798 628.373 514.762C630.084 516.725 631.065 518.874 631.317 521.209C631.68 524.575 630.741 527.801 628.499 530.885C626.277 533.965 623.376 535.935 619.797 536.795C617.04 537.457 614.459 537.31 612.055 536.355C609.649 535.378 607.309 533.35 605.035 530.271ZM636.48 483.971L641.016 482.882L646.026 529.3L641.49 530.389L636.48 483.971ZM650.833 519.276L654.435 515.983C657.703 520.443 661.116 522.245 664.676 521.391C666.198 521.025 667.59 520.324 668.85 519.288C670.108 518.231 671.02 517.008 671.588 515.62C672.156 514.232 672.366 512.854 672.219 511.487C672.051 509.93 671.372 508.528 670.182 507.282C668.54 505.561 665.679 503.701 661.601 501.702C657.5 499.687 654.916 498.138 653.849 497.056C652.008 495.253 650.95 493.079 650.676 490.534C650.458 488.515 650.732 486.56 651.499 484.671C652.266 482.782 653.453 481.159 655.058 479.802C656.682 478.42 658.502 477.487 660.518 477.002C662.658 476.489 664.713 476.557 666.682 477.206C668.67 477.829 670.86 479.343 673.251 481.747L669.858 485.508C667.901 483.604 666.275 482.429 664.982 481.985C663.709 481.535 662.363 481.48 660.943 481.821C659.112 482.261 657.672 483.189 656.621 484.607C655.592 486.019 655.167 487.557 655.346 489.219C655.455 490.228 655.766 491.157 656.28 492.005C656.794 492.853 657.656 493.703 658.867 494.556C659.527 495.002 661.648 496.079 665.231 497.787C669.481 499.81 672.461 501.803 674.172 503.766C675.882 505.73 676.863 507.879 677.115 510.214C677.479 513.58 676.539 516.805 674.297 519.89C672.075 522.97 669.175 524.94 665.595 525.799C662.838 526.461 660.257 526.315 657.854 525.359C655.448 524.383 653.107 522.355 650.833 519.276ZM452.108 668.984L455.71 665.691C458.977 670.151 462.391 671.954 465.95 671.099C467.473 670.734 468.864 670.033 470.124 668.997C471.382 667.939 472.295 666.717 472.863 665.329C473.431 663.94 473.641 662.563 473.493 661.195C473.325 659.639 472.646 658.237 471.456 656.99C469.814 655.27 466.954 653.41 462.875 651.41C458.774 649.395 456.19 647.847 455.124 646.765C453.283 644.962 452.225 642.788 451.95 640.243C451.732 638.223 452.007 636.269 452.774 634.38C453.541 632.491 454.727 630.868 456.333 629.511C457.956 628.128 459.776 627.195 461.793 626.711C463.932 626.197 465.987 626.265 467.957 626.915C469.945 627.538 472.135 629.052 474.526 631.456L471.133 635.216C469.175 633.312 467.55 632.138 466.256 631.693C464.984 631.243 463.637 631.189 462.218 631.53C460.387 631.969 458.946 632.898 457.896 634.315C456.866 635.728 456.441 637.265 456.621 638.927C456.73 639.937 457.041 640.866 457.555 641.714C458.068 642.561 458.93 643.412 460.141 644.265C460.801 644.711 462.923 645.788 466.506 647.496C470.755 649.519 473.736 651.512 475.446 653.475C477.157 655.438 478.138 657.588 478.39 659.923C478.753 663.288 477.814 666.514 475.572 669.599C473.35 672.679 470.449 674.649 466.869 675.508C464.112 676.17 461.532 676.023 459.128 675.068C456.722 674.092 454.382 672.064 452.108 668.984ZM518.154 634.093L514.964 637.092C511.567 633.786 507.308 632.747 502.185 633.977C498.091 634.96 494.831 637.124 492.406 640.469C490.001 643.808 489.007 647.403 489.422 651.253C489.692 653.756 490.564 655.964 492.037 657.876C493.53 659.784 495.423 661.089 497.715 661.79C500.027 662.487 502.531 662.511 505.226 661.864C510.164 660.679 513.98 657.702 516.673 652.933L520.348 654.414C519.009 657.261 517.055 659.694 514.487 661.713C511.937 663.706 508.934 665.118 505.477 665.948C500.169 667.222 495.58 666.554 491.71 663.944C487.84 661.334 485.638 657.557 485.105 652.613C484.746 649.289 485.226 646.012 486.545 642.782C487.882 639.526 489.894 636.755 492.581 634.47C495.269 632.184 498.382 630.617 501.92 629.767C504.142 629.234 506.32 629.067 508.452 629.268C510.605 629.463 512.462 629.945 514.022 630.714C515.583 631.483 516.96 632.61 518.154 634.093ZM541.516 620.261C546.68 619.022 551.166 619.909 554.974 622.922C558.437 625.673 560.426 629.437 560.941 634.212C561.459 639.008 560.276 643.598 557.393 647.98C554.529 652.337 550.535 655.13 545.412 656.36C540.268 657.595 535.868 656.817 532.21 654.026C528.571 651.209 526.493 647.403 525.975 642.606C525.462 637.852 526.56 633.359 529.27 629.126C532.249 624.461 536.331 621.506 541.516 620.261ZM541.982 624.584C538.402 625.444 535.473 627.539 533.194 630.87C530.915 634.202 529.983 637.792 530.399 641.642C530.667 644.124 531.503 646.297 532.907 648.161C534.312 650.026 536.075 651.307 538.198 652.006C540.319 652.684 542.572 652.736 544.959 652.163C547.345 651.591 549.474 650.486 551.345 648.85C553.213 647.193 554.618 645.15 555.559 642.723C556.501 640.296 556.837 637.841 556.569 635.359C556.154 631.509 554.503 628.538 551.618 626.447C548.753 624.351 545.541 623.73 541.982 624.584ZM569.522 601.365L573.874 600.321L575.25 613.069L582.101 611.424L582.51 615.211L575.658 616.856L578.955 647.401L574.604 648.445L571.307 617.9L565.413 619.315L565.004 615.529L570.898 614.114L569.522 601.365ZM590.94 596.223L595.292 595.179L596.668 607.927L603.519 606.282L603.927 610.069L597.076 611.714L600.373 642.259L596.022 643.304L592.725 612.758L586.83 614.173L586.422 610.387L592.316 608.972L590.94 596.223ZM627.255 604.436L624.794 608.037C622.243 606.298 619.866 605.692 617.665 606.22C616.266 606.556 615.113 607.319 614.207 608.507C613.322 609.691 612.947 610.914 613.083 612.176C613.204 613.291 613.73 614.255 614.662 615.067C615.596 615.9 617.455 616.695 620.238 617.451C623.632 618.384 625.99 619.502 627.312 620.803C628.616 622.13 629.376 623.793 629.592 625.791C629.896 628.61 629.187 631.23 627.464 633.651C625.741 636.071 623.429 637.63 620.528 638.326C618.594 638.791 616.696 638.804 614.834 638.366C612.992 637.924 611.413 637.083 610.097 635.845L612.472 632.038C614.949 634.055 617.421 634.767 619.89 634.174C621.618 633.759 623.028 632.838 624.119 631.411C625.211 629.983 625.673 628.502 625.508 626.966C625.371 625.704 624.849 624.675 623.94 623.879C623.033 623.103 621.091 622.318 618.113 621.522C614.916 620.649 612.688 619.566 611.43 618.271C610.171 616.976 609.434 615.329 609.219 613.331C608.937 610.722 609.567 608.348 611.109 606.208C612.672 604.063 614.78 602.672 617.434 602.035C620.521 601.294 623.794 602.094 627.255 604.436ZM666.619 577.536L671.755 625.121L667.496 626.144L666.86 620.243C665.292 622.929 663.438 625.111 661.297 626.791C659.177 628.465 656.78 629.623 654.105 630.265C649.353 631.406 645.1 630.625 641.346 627.922C637.611 625.193 635.471 621.304 634.926 616.255C634.393 611.312 635.634 606.676 638.649 602.348C641.665 598.02 645.559 595.283 650.333 594.137C653.09 593.475 655.644 593.477 657.995 594.142C660.367 594.803 662.526 596.13 664.472 598.123L662.361 578.559L666.619 577.536ZM651.132 598.315C648.725 598.893 646.569 600.037 644.663 601.746C642.756 603.434 641.313 605.517 640.336 607.997C639.378 610.471 639.032 612.928 639.295 615.369C639.556 617.788 640.413 619.956 641.865 621.873C643.317 623.791 645.129 625.126 647.3 625.878C649.489 626.604 651.756 626.686 654.101 626.123C656.468 625.554 658.644 624.406 660.632 622.677C662.619 620.948 664.066 618.907 664.973 616.552C665.901 614.193 666.223 611.709 665.942 609.101C665.513 605.125 663.868 602.11 661.008 600.055C658.168 597.996 654.876 597.416 651.132 598.315ZM711.318 580.402L715.023 614.734L710.764 615.756L710.127 609.856C708.56 612.541 706.705 614.724 704.565 616.403C702.445 618.077 700.048 619.236 697.373 619.878C692.62 621.019 688.367 620.238 684.614 617.535C680.879 614.806 678.739 610.917 678.194 605.868C677.661 600.924 678.902 596.288 681.917 591.96C684.933 587.632 688.827 584.895 693.6 583.749C696.357 583.087 698.911 583.089 701.263 583.755C703.635 584.415 705.794 585.742 707.74 587.735L707.059 581.424L711.318 580.402ZM694.4 587.927C691.992 588.505 689.836 589.649 687.931 591.358C686.024 593.046 684.581 595.13 683.603 597.609C682.646 600.083 682.299 602.541 682.563 604.981C682.824 607.4 683.68 609.568 685.133 611.486C686.585 613.403 688.396 614.738 690.567 615.49C692.756 616.216 695.024 616.298 697.369 615.735C699.735 615.167 701.912 614.018 703.899 612.289C705.887 610.561 707.334 608.519 708.241 606.165C709.168 603.805 709.491 601.322 709.21 598.713C708.78 594.737 707.136 591.722 704.276 589.668C701.436 587.609 698.144 587.028 694.4 587.927ZM718.991 564.963L723.312 563.926L728.448 611.511L724.127 612.548L718.991 564.963ZM764.468 591.177L768.321 592.259C767.386 594.943 766.217 597.21 764.812 599.058C763.407 600.906 761.769 602.453 759.899 603.701C758.026 604.928 755.855 605.837 753.386 606.43C747.914 607.744 743.437 606.941 739.955 604.022C736.472 601.081 734.48 597.297 733.981 592.669C733.511 588.314 734.399 584.119 736.644 580.084C739.488 574.955 743.688 571.724 749.243 570.39C754.963 569.017 759.77 570.14 763.664 573.759C766.43 576.31 768.087 579.927 768.635 584.608L738.452 591.854C738.966 595.832 740.565 598.814 743.249 600.803C745.931 602.771 749.041 603.329 752.58 602.48C754.288 602.07 755.911 601.367 757.45 600.372C759.009 599.372 760.301 598.231 761.323 596.949C762.346 595.668 763.394 593.744 764.468 591.177ZM763.47 581.931C762.64 579.713 761.593 578.033 760.33 576.89C759.087 575.743 757.514 574.955 755.61 574.527C753.707 574.099 751.757 574.125 749.761 574.604C746.47 575.394 743.758 577.157 741.625 579.892C740.067 581.884 739.016 584.565 738.472 587.932L763.47 581.931Z" fill="black"/>
</svg>
