<svg width="2000" height="2000" viewBox="0 0 2000 2000" fill="none" xmlns="http://www.w3.org/2000/svg">
<path d="M1699 575C1736.6 773.8 1641.33 930.5 1589 984L722.5 905C625.333 858.833 433.1 763.3 441.5 750.5C449.9 737.7 441 671.5 435.5 640L540 462L627 368.5L577 328L530.5 311.5V262L715.5 112L770.5 117.5L877 112L982 77.5L1101 93.5L1186.5 67C1215.83 71.3333 1276.4 79.5 1284 77.5C1293.5 75 1325 37.5 1345.5 37C1366 36.5 1418 59 1441.5 62.5C1465 66 1577 70.5 1596.5 70.5C1616 70.5 1670.5 110.5 1676 129C1681.5 147.5 1640.5 251.5 1591.5 383.5C1591.5 405.5 1643.5 407 1699 575Z" fill="white" stroke="black"/>
<path d="M1686.09 529.366C1682.35 518.145 1672.99 492.897 1668.32 462.038C1669.88 460.479 1675.61 459.607 1686.09 468.584C1699.18 479.805 1727.24 513.469 1735.66 521.885C1744.07 530.301 1782.42 587.343 1789.9 602.305C1797.38 617.267 1815.16 664.958 1822.64 707.973C1830.12 750.988 1819.83 829.538 1817.96 847.305C1816.09 865.072 1799.26 914.633 1778.68 963.259C1758.1 1011.89 1706.66 1086.69 1684.22 1116.62C1661.77 1146.54 1605.65 1187.69 1602.85 1189.56C1600.04 1191.43 1589.75 985.702 1589.75 980.091C1589.75 974.481 1597.24 972.61 1602.85 966.064C1608.46 959.519 1654.29 884.71 1664.58 863.202C1674.86 841.694 1699.18 767.82 1703.86 734.156C1708.53 700.492 1705.73 619.137 1704.79 606.981C1703.86 594.824 1689.83 540.587 1686.09 529.366Z" fill="#6DB058"/>
<path d="M1316.9 28.7672C1303.29 36.0556 1286.27 55.9769 1280.92 71.0394C1280.43 72.9829 1271.2 70.0675 1260.5 64.7228C1231.81 50.1462 1179.3 51.118 1153.53 67.1523C1128.74 82.7006 1096.16 83.1865 1050.94 69.0958C1004.75 54.5192 986.76 55.4909 960.99 72.9829C931.817 92.9043 909.937 99.2208 862.288 101.164C839.436 102.136 816.098 105.537 810.263 108.453C802.484 112.826 794.704 112.826 778.659 108.453C766.99 105.051 744.624 103.108 728.579 104.566C696.002 106.995 693.085 108.453 596.814 195.426C566.182 222.636 536.037 247.902 530.202 250.817C520.964 254.705 519.019 259.563 519.019 278.999C519.019 312.039 536.523 330.989 570.072 335.848C588.548 338.277 594.869 341.678 595.841 348.481C598.759 363.057 577.365 400.471 553.054 424.279C539.44 437.884 522.423 462.178 509.781 487.444C498.598 510.281 479.636 538.462 467.966 550.61C434.417 585.108 423.721 631.267 436.848 684.228C441.224 701.72 440.252 711.924 431.986 745.45C413.996 816.39 417.4 832.424 465.049 898.019C479.149 916.968 489.846 936.89 489.846 944.178C490.332 990.337 522.909 1076.82 553.054 1111.32C604.593 1169.63 678.498 1188.58 747.055 1160.4C764.072 1153.6 778.659 1148.74 780.118 1150.19C781.576 1151.17 779.631 1164.77 776.228 1180.32L769.907 1208.5L804.915 1240.57C892.92 1322.2 1005.72 1359.13 1165.69 1358.64C1257.58 1358.64 1310.58 1349.89 1394.7 1320.25C1628.08 1239.11 1790.48 1051.56 1830.83 816.876C1837.64 776.547 1838.13 762.456 1832.78 718.726C1821.59 618.148 1787.07 558.87 1678.16 454.404C1613.01 392.21 1608.14 386.38 1608.14 369.86C1608.14 351.882 1626.62 296.977 1658.71 220.207C1704.42 110.882 1681.08 71.0394 1565.36 59.3781C1539.59 56.4628 1505.07 55.4911 1489.02 57.4346C1462.28 60.3498 1455.47 58.8922 1418.52 42.8579C1367.95 21.4789 1339.75 17.5919 1316.9 28.7672ZM1399.07 58.4063C1424.84 71.5253 1428.73 72.0111 1503.61 72.0111C1573.14 72.0111 1584.32 73.4688 1609.12 83.1865C1651.9 100.678 1674.27 131.289 1663.57 158.985C1661.14 165.787 1657.74 164.33 1644.12 152.183C1621.76 132.747 1607.17 129.832 1581.89 139.549C1542.99 154.612 1533.27 169.674 1511.39 255.676C1488.05 347.509 1477.84 367.916 1445.75 387.838C1405.88 412.132 1357.26 403.872 1333.92 368.402C1316.9 342.164 1288.21 124.487 1296.97 86.5877C1306.69 44.3156 1347.53 33.1402 1399.07 58.4063ZM1261.47 86.5877C1278.49 93.8761 1278.98 93.8761 1275.57 117.685C1272.17 142.465 1295.51 322.729 1307.18 360.628C1313.98 383.465 1336.84 408.245 1358.72 417.477C1377.68 425.737 1422.41 426.223 1441.37 418.934C1448.67 416.505 1462.28 406.787 1471.03 398.527C1498.26 372.775 1507.5 350.91 1544.94 221.664C1561.95 161.414 1590.15 140.035 1627.11 159.471C1651.42 171.618 1652.88 191.053 1634.4 247.416C1612.03 316.898 1582.38 361.114 1559.04 361.114C1546.4 361.114 1547.37 369.86 1560.98 376.176C1600.37 394.154 1598.91 471.896 1558.55 552.553C1550.29 569.073 1538.62 588.995 1532.29 597.255C1523.06 609.888 1522.08 613.775 1527.43 618.148C1536.18 625.436 1545.91 614.261 1563.9 573.932C1592.59 509.795 1603.28 473.839 1603.28 440.799C1603.28 423.307 1605.23 409.702 1608.14 409.702C1616.41 409.702 1641.69 449.059 1647.53 469.952C1650.45 481.128 1651.9 505.422 1650.93 524.372C1648.5 563.243 1630.02 607.944 1600.37 648.273C1584.81 669.652 1583.83 672.081 1593.07 672.081C1613.01 672.081 1637.8 630.295 1662.11 556.926C1668.44 537.491 1675.24 521.456 1676.7 521.456C1683.02 521.456 1697.12 594.825 1699.55 639.527C1704.9 743.507 1669.41 856.232 1598.42 961.67C1553.69 1027.26 1471.52 1085.09 1357.74 1131.24C1311.07 1149.71 1248.34 1168.66 1248.34 1163.8C1248.34 1161.86 1264.88 1147.28 1284.81 1131.73C1330.52 1096.26 1386.43 1037.95 1413.66 997.625C1470.06 915.025 1497.77 812.503 1478.32 761.484C1472 744.478 1467.14 758.083 1467.14 794.039C1467.14 912.595 1407.34 1020.95 1295.51 1105.01C1242.51 1144.85 1177.84 1176.92 1142.35 1180.32C1093.73 1185.66 1029.06 1163.8 999.888 1132.22C978.494 1109.38 928.9 1034.55 909.937 997.139C886.113 949.037 864.233 894.132 830.198 796.468C794.218 691.517 778.659 658.962 753.862 639.041C722.258 613.289 715.937 605.515 701.837 577.333C694.057 562.757 686.278 550.61 683.847 550.61C681.902 550.61 677.526 559.356 674.609 570.045C671.691 580.249 667.315 590.452 663.912 592.396C658.563 595.797 571.531 595.311 568.127 591.424C567.155 590.452 564.724 581.706 563.265 571.503C558.889 544.293 550.623 547.208 538.468 579.763C532.633 595.797 520.964 617.176 513.671 626.894C493.736 651.674 493.736 682.285 513.671 701.235L528.257 714.353L518.047 735.247C508.322 754.682 507.836 758.569 513.185 805.214C528.257 930.573 587.576 1083.63 634.739 1116.18C658.563 1132.7 677.04 1133.19 734.413 1119.58C799.566 1104.03 817.07 1106.95 786.925 1128.33C765.045 1144.36 715.937 1154.57 680.443 1151.65C592.924 1143.39 537.495 1080.23 509.781 956.325C502.002 921.827 496.167 909.194 472.829 875.182C438.307 826.593 435.39 809.587 450.949 748.851C459.701 714.839 460.673 704.15 456.297 688.601C444.628 646.329 455.811 601.628 489.36 559.356C500.543 545.265 518.047 519.513 528.257 502.021C551.109 464.122 557.916 460.235 557.916 486.472C557.916 503.479 560.834 508.337 575.906 520.971C599.731 540.892 609.942 540.406 619.18 519.027C630.363 491.817 642.518 482.1 660.994 485.987C682.388 489.874 686.764 494.733 686.764 513.196C686.764 525.344 689.195 529.231 697.461 530.202C705.726 531.174 716.423 523.886 737.817 502.507C783.035 456.833 804.915 451.003 859.857 468.009C895.351 478.698 911.396 493.761 1028.57 624.464C1087.89 690.059 1119.5 720.184 1124.36 714.839C1125.82 713.868 1092.76 676.94 1050.94 632.724C1009.13 588.995 960.99 535.547 944.459 513.682C927.441 492.303 905.562 470.438 896.323 465.579C886.599 460.235 879.306 453.918 880.278 451.975C880.764 449.545 894.378 439.827 909.937 430.11C937.652 412.618 938.624 412.618 943.973 421.85C955.156 441.771 980.439 461.692 1008.15 472.382C1065.53 494.247 1097.62 490.846 1132.62 459.263C1151.59 442.257 1151.59 442.257 1166.17 450.517C1173.95 454.89 1180.27 456.833 1180.27 454.404C1180.27 445.172 1115.12 372.775 1099.08 364.515C1086.43 357.713 1073.79 355.769 1053.37 357.227C1033.92 358.198 1024.68 356.741 1024.68 353.34C1024.68 341.678 1079.14 298.434 1118.04 279.485C1153.53 261.993 1180.27 253.247 1236.19 241.586L1250.78 238.184L1231.33 229.438C1218.2 223.122 1206.53 221.178 1194.86 223.122C1148.18 230.896 1054.34 288.717 940.569 380.063C904.103 409.217 869.095 434.968 863.261 436.912C844.298 442.743 814.153 439.827 801.511 430.11C765.531 403.386 760.669 369.86 785.466 326.13C804.915 292.604 805.401 282.4 786.925 299.892C774.769 311.553 756.293 346.051 746.082 376.176C742.679 387.352 701.35 392.696 676.067 385.894C653.215 379.578 632.794 365.001 628.418 351.396C621.611 330.017 665.37 269.281 741.22 195.426C812.208 126.43 819.015 122.057 860.83 119.628C883.196 118.17 909.451 112.34 934.248 102.622C981.898 84.6442 1020.31 83.1865 1057.75 98.249C1089.84 110.882 1098.1 110.882 1121.93 98.7349C1169.09 74.4405 1221.6 70.0675 1261.47 86.5877ZM773.311 124.001C784.007 129.346 783.521 129.832 677.526 240.614C620.638 300.378 601.19 317.87 589.034 320.299C567.155 324.186 554.027 318.842 542.844 301.35C527.285 275.112 530.202 267.338 564.237 245.959C580.769 235.269 619.18 204.172 649.325 175.991C679.471 148.295 711.561 123.029 719.827 119.628C735.386 113.797 757.265 115.255 773.311 124.001ZM1106.37 415.047C1107.34 421.85 1104.42 430.11 1100.53 433.997C1093.73 439.342 1093.24 438.37 1095.67 424.279C1098.1 413.59 1097.13 407.273 1092.27 403.872C1086.92 400.471 1087.89 399.985 1095.19 400.957C1101.51 401.928 1105.4 406.787 1106.37 415.047ZM990.649 416.991C990.649 430.11 984.815 432.539 976.549 422.821C972.66 417.963 973.146 414.561 977.035 410.674C986.274 401.442 990.649 403.872 990.649 416.991ZM769.421 438.856C770.879 441.285 770.393 443.714 767.476 443.714C765.045 443.714 761.155 441.285 759.696 438.856C758.238 435.94 758.724 433.997 761.641 433.997C764.072 433.997 767.962 435.94 769.421 438.856ZM1717.06 510.281C1785.13 588.509 1813.81 665.279 1814.3 774.118C1814.79 831.938 1813.81 837.283 1796.8 886.843C1715.6 1122.01 1542.51 1277.98 1307.66 1328.51C1246.89 1341.15 1111.72 1346.49 1053.86 1338.23C941.055 1321.71 829.712 1260.98 796.649 1198.3C788.383 1181.78 790.328 1155.54 801.511 1136.1C819.015 1106.46 824.363 1106.46 877.361 1132.7C965.852 1177.4 1042.19 1196.84 1126.79 1197.81C1186.11 1198.78 1234.24 1190.04 1316.41 1162.83C1478.81 1109.87 1595.5 1018.52 1658.71 895.589C1701.01 813.96 1718.03 733.789 1713.65 638.555C1711.71 588.023 1709.28 576.362 1691.29 526.801C1680.59 496.19 1671.35 470.438 1671.35 469.466C1671.35 462.178 1684.97 474.325 1717.06 510.281ZM667.315 616.204C704.268 625.922 741.22 646.329 754.834 664.793C761.155 672.567 779.631 714.839 796.163 758.569C853.536 910.652 924.524 1065.65 962.935 1122.5C972.66 1136.59 978.494 1148.25 976.549 1148.25C974.118 1148.25 951.266 1138.53 925.496 1126.39C854.509 1093.83 831.657 1088 776.714 1091.4C751.431 1092.86 720.313 1097.23 707.671 1101.61C687.736 1108.89 682.874 1108.89 668.288 1102.58C647.38 1093.83 636.684 1080.23 607.511 1022.89C559.375 929.115 533.606 841.656 533.606 772.66C533.606 727.958 536.037 725.529 595.841 710.952C620.638 704.636 639.601 698.805 638.628 697.833C637.656 696.862 618.694 698.805 596.328 701.72C561.806 706.579 553.054 706.579 540.899 700.749C514.643 688.116 519.505 643.414 549.165 625.922C579.796 607.944 622.097 604.543 667.315 616.204Z" fill="black"/>
<path fill-rule="evenodd" clip-rule="evenodd" d="M1263 366.714C1263 366.714 1260.17 380.764 1255.67 385.264C1251.17 389.764 1243.93 391.431 1238 394.5C1232.07 397.569 1220.91 415.34 1220.91 415.34C1220.91 415.34 1188.84 510.863 1179.76 523.813C1170.67 536.764 1154.67 555.764 1145.17 562.764C1135.67 569.764 1103.17 585.764 1103.17 585.764C1085.17 592.264 1034.1 599.004 1002.67 595.264C971.249 591.523 932.221 581.167 916.945 576.18C896.992 567.452 855.597 544.279 840.675 524.764C822.242 500.657 815 486.409 814.064 477.057C813.647 472.887 811.5 462 810.675 449.004C808.779 439.357 805.156 429.441 803.776 422.821C803.153 418.145 800.971 408.233 797.229 405.989C792.553 403.183 786.006 400.378 778.524 401.313C776.834 401.524 764.76 403.959 746.175 405.264L714.675 374.264C707.192 368.341 689.891 356.008 675.675 353.764C661.458 351.519 639.791 352.999 630.75 354.557C618.591 358.921 592.216 368.958 583.986 374.195C575.755 379.431 571.969 390.629 571.657 394.058L572.675 406.764C571.175 406.764 565.239 420.025 561.675 420.264C561.675 420.264 559.157 383.058 557.657 381.558C556.157 380.058 548.657 379.558 547.51 377.935C546.363 376.313 547.51 367.063 547.51 367.063L551.251 356.428L575.675 342.764L600.821 331.979L632.62 327.439C645.091 327.751 674.708 329.309 693.413 333.05C712.119 336.79 747.348 350.194 762.624 356.428C768.859 358.298 787.128 361.29 810.323 358.298C833.518 355.306 887.857 339.368 912.175 331.264C925.892 329.082 966.328 323.512 1017.96 322.764C1082.49 321.828 1195.66 320.893 1227.46 325.569C1243.48 327.925 1250.72 328.144 1254.55 328.26C1258.33 328.374 1258.81 328.389 1261.13 330.244C1264.87 333.237 1267.05 337.102 1267.67 338.66L1263 366.714ZM841.187 449.004L838.382 417.21L846.175 400.264L855.175 384.264C858.604 379.9 868.311 368.023 887.016 358.298C905.722 348.573 937.957 345.764 951.675 345.764C979.299 343.386 1036.29 342.588 1042.27 343.336C1048.26 344.084 1073.31 344.886 1088.67 346.764C1099.31 349.886 1119.53 355.306 1125.51 358.298C1125.95 358.518 1126.42 358.748 1126.92 358.991C1134.87 362.883 1149.88 370.234 1165.73 396.638C1179.2 419.08 1163.86 473.317 1154.51 497.63C1146.5 518 1110.69 558.011 1087.5 562.5C1058.51 568.111 986.5 570.5 963 566C945.26 562.603 911.952 550.645 896.369 540.645C879 529.5 855.547 490.832 849 474C843.762 460.534 841.187 451.809 841.187 449.004ZM557.798 362.038C557.175 362.662 556.164 365.314 559.157 367.558C562.898 370.363 569.021 371.863 573.698 369.058C574.651 368.486 576.314 368.014 577.157 367.558C580.454 365.776 583.402 363.536 582.657 360.558C581.722 356.817 575.834 354.558 571.157 354.558C566.481 354.558 560.604 358.298 559.669 359.233C558.92 359.981 558.11 361.415 557.798 362.038ZM1215.17 344.764C1224.65 345.452 1243.17 350.279 1243.17 356.264C1243.17 363.053 1226.32 363.848 1217.17 363.764C1216.24 363.755 1211.85 363.599 1207.67 362.764C1197.67 360.764 1185.67 358.764 1185.67 352.264C1185.67 346.764 1205.67 344.764 1215.17 344.764Z" fill="#6DB058"/>
<path d="M1243.25 356.445C1243.18 357.439 1242.52 358.495 1241.06 359.537C1239.6 360.573 1237.46 361.496 1234.76 362.232C1229.37 363.7 1221.94 364.359 1213.77 363.825C1205.61 363.292 1198.33 361.672 1193.17 359.515C1190.59 358.434 1188.59 357.24 1187.28 356.023C1185.96 354.799 1185.45 353.666 1185.51 352.673C1185.58 351.679 1186.23 350.623 1187.7 349.581C1189.16 348.545 1191.3 347.621 1194 346.886C1199.39 345.418 1206.82 344.759 1214.98 345.292C1223.15 345.826 1230.43 347.446 1235.58 349.603C1238.17 350.684 1240.16 351.878 1241.48 353.095C1242.8 354.319 1243.31 355.452 1243.25 356.445Z" stroke="black" stroke-width="2"/>
<path d="M582.869 360.271C583.179 362.124 582.257 364.166 580.174 365.978C578.105 367.778 575.009 369.227 571.37 369.836C567.73 370.444 564.331 370.081 561.789 369.052C559.229 368.017 557.693 366.386 557.383 364.533C557.073 362.68 557.995 360.638 560.078 358.826C562.147 357.027 565.243 355.577 568.883 354.968C572.522 354.36 575.921 354.723 578.463 355.752C581.023 356.788 582.559 358.418 582.869 360.271Z" stroke="black" stroke-width="2"/>
<path d="M889.23 533.106C934.871 578.74 1049.02 570.69 1087.51 562.095C1126 553.5 1168.88 493.832 1170.75 423.698C1172.24 367.591 1105.9 347.33 1072.54 344.213C1029.21 342.343 933.188 341.782 895.776 354.5C858.365 367.217 842.154 401.567 838.725 417.152C836.542 436.79 843.588 487.473 889.23 533.106Z" stroke="black" stroke-width="3"/>
<path d="M746.5 406C739.018 395.714 705.915 365.721 697.497 361.98C689.389 358.377 678.879 352.635 663.827 351.694C648.863 350.759 632.028 353.564 628.287 354.5C624.546 355.435 590.452 369.779 583.393 375.072C579.652 377.877 576.846 381.618 574.041 386.293C571.449 390.612 572.17 411.406 572.17 416.081" stroke="black" stroke-width="3"/>
<path d="M561.882 421.692C562.63 427.677 766.5 402.5 768.578 402.191C770.657 401.881 781.485 399.946 791.96 402.191C802.435 404.435 809.5 433.5 811.5 458C813.5 482.5 831.055 537.595 905.129 570.511C997.722 611.656 1082.83 592.954 1100.6 586.408C1138.67 572.384 1172.26 547.133 1190.39 499.442C1206.75 456.407 1215.64 420.893 1228.74 404.061C1231.54 400.008 1239.77 391.156 1250.25 388.164C1263.34 384.423 1268.02 346.083 1268.02 339.538C1268.02 334.301 1268.02 334.5 1257.5 329C1246.98 323.5 1127.86 324.189 1056.64 322.706C950.958 323.641 922.899 328.316 904.194 332.992C877.694 341.72 821.141 358.24 810.666 358.24C797.572 358.24 790.09 360.11 771.384 358.24C752.679 356.37 737.714 343.278 699.368 334.862C668.691 328.129 640.445 327.693 630.157 328.316C620.804 328.94 605.271 330.71 598 333C590.5 335.362 557.862 351.169 552.529 355.435C547.196 359.7 545.982 373.202 547.853 376.942C549.723 380.683 554.4 378.813 557.205 380.683C560.011 382.553 560.946 414.211 561.882 421.692ZM561.882 421.692L580.587 395.509" stroke="black" stroke-width="3"/>
<path d="M1529.9 685.53C1530.83 686.465 1531.77 701.427 1531.77 701.427L761.862 914.422C761.609 914.511 761.358 914.581 761.096 914.633L714.332 921.179C710.591 922.114 693.008 917.626 652.604 892.191C625.642 875.217 501.111 806.22 384.179 741.998C325.882 709.98 269.475 679.148 227.987 656.542C230.793 651.866 230.793 651.866 238.275 649.996C244.362 648.474 246.693 649.996 247.628 649.996C248.369 649.996 290.141 673.228 311.54 685.183C306.548 682.082 306.479 674.093 304.68 668.698C302.81 663.087 301.874 644.385 301.874 637.839C301.874 631.294 306.551 618.202 310.292 617.267C314.033 616.332 317.774 618.202 320.58 623.813C323.386 629.423 333.674 648.126 343.962 663.087C354.25 678.049 397.273 719.194 412.237 733.221C427.202 747.248 650.733 848.24 658.215 853.851C665.698 859.462 715.267 881.904 719.009 882.839C722.75 883.774 731.167 878.164 737.714 877.229C742.952 876.481 746.066 879.411 746.968 880.969C748.649 879.934 750.255 878.991 751.743 878.164C761.622 872.677 785.414 866.007 824.695 854.786C862.262 844.055 922.899 824.862 942.54 819.252C956.149 815.364 1072.54 778.107 1086.57 773.431C1097.55 769.773 1251.18 709.843 1283.92 696.752C1310.1 686.278 1405.5 631.293 1406.44 632.229C1407.37 633.164 1412.05 713.584 1412.99 714.519C1413.92 715.454 1528.96 684.595 1529.9 685.53Z" fill="#C0BA85"/>
<path d="M1531.77 701.427C1531.77 701.427 1530.83 686.465 1529.9 685.53C1528.96 684.595 1413.92 715.454 1412.99 714.519M1531.77 701.427C1300.44 755.664 828.249 868.439 790.09 885.645M1531.77 701.427C1288.28 765.95 791.025 897.801 786.349 902.477C765.773 910.893 764.214 914.01 761.096 914.633M1531.77 701.427L761.096 914.633M1412.99 714.519C1412.05 713.584 1407.37 633.164 1406.44 632.229C1405.5 631.293 1310.1 686.278 1283.92 696.752C1251.18 709.843 1097.55 769.773 1086.57 773.431C1072.54 778.107 956.149 815.364 942.54 819.252C922.899 824.862 862.262 844.055 824.695 854.786C785.413 866.007 761.622 872.677 751.743 878.164C750.255 878.991 748.649 879.934 746.968 880.969M1412.99 714.519C1312.6 739.767 1079.46 798.118 950.022 829.538M714.332 921.179C714.332 916.503 712.358 907.972 722.75 898.736C729.679 892.578 739.143 885.787 746.968 880.969M714.332 921.179L761.096 914.633M714.332 921.179C710.591 922.114 693.008 917.626 652.604 892.191C625.642 875.217 501.111 806.22 384.179 741.998M746.968 880.969C746.066 879.411 742.952 876.481 737.714 877.229C731.167 878.164 722.75 883.774 719.009 882.839C715.267 881.904 665.698 859.462 658.215 853.851C650.733 848.24 427.202 747.248 412.237 733.221M412.237 733.221C397.273 719.194 354.25 678.049 343.962 663.087C333.674 648.126 323.386 629.423 320.58 623.813C317.774 618.202 314.033 616.332 310.292 617.267C306.551 618.202 301.874 631.294 301.874 637.839C301.874 644.385 302.81 663.087 304.68 668.698C306.551 674.309 306.551 682.725 312.162 685.53M412.237 733.221L312.162 685.53M312.162 685.53C290.963 673.685 248.376 649.996 247.628 649.996C246.693 649.996 244.362 648.474 238.275 649.996C230.793 651.866 230.793 651.866 227.987 656.542C269.475 679.148 325.882 709.98 384.179 741.998M384.179 741.998C384.802 740.631 392.596 739.767 397.273 742.572C426.266 757.222 485.189 787.084 488.93 789.328C493.606 792.133 670.374 882.839 674.115 884.71" stroke="black"/>
<path d="M705.318 920.178C712.203 921.983 751.548 919.181 755.854 917.375C760.161 915.568 1540.11 700.579 1546.66 697.776C1553.21 694.973 1565.38 700.579 1570.06 710.858C1574.74 721.138 1638.7 1766.52 1635.58 1775.87C1631.43 1788.34 1623.42 1788.03 1615.01 1791.77C1611.32 1793.41 1216.61 1886.1 1019.77 1933.14C994.813 1938.43 937.416 1951.83 931.317 1953.68C925.218 1955.52 906.064 1967.7 901.85 1972.38C897.636 1977.07 800.378 1985.47 782.608 1981.73C764.837 1977.99 300.004 1601.14 293.457 1588.05C286.91 1574.95 170 657.606 170 653.866V653.866C170 650.125 170 644.515 174.676 640.774C179.353 637.034 185.9 637.034 192.461 639.839C199.023 642.645 698.432 918.374 705.318 920.178Z" fill="#659556" stroke="black" stroke-width="5"/>
<path d="M1605.77 1767.65L938.948 1922.44C938.369 1922.57 937.801 1922.17 937.729 1921.58L816.383 923.915C816.323 923.419 816.637 922.954 817.121 922.827L1545.55 730.728C1546.16 730.567 1546.76 731.006 1546.8 731.637L1606.54 1766.62C1606.57 1767.1 1606.24 1767.54 1605.77 1767.65Z" fill="#6DB058"/>
<path d="M315.903 1580.43L194.317 672.439L654.474 922.114L764.837 1935.78L315.903 1580.43Z" fill="#6DB058"/>
<path d="M970.944 1866.77L864.285 954.529C864.051 952.532 865.336 950.672 867.286 950.184L1511.13 788.914C1513.56 788.306 1515.94 790.052 1516.09 792.55L1572.81 1722.04C1572.93 1723.97 1571.64 1725.71 1569.76 1726.17L975.86 1870.19C973.526 1870.76 971.223 1869.15 970.944 1866.77Z" fill="#70CC38" style="mix-blend-mode:lighten"/>
<path d="M684.403 955.481C683.655 956.229 756.731 1627.19 792.896 1955.42C792.941 1955.83 860.236 1954.48 861.171 1953.55C862.106 1952.61 747.642 956.607 747.067 956.416C745.027 955.74 685.339 954.546 684.403 955.481Z" fill="#6DB058"/>
<path d="M962.501 1490.82L975.852 1487.61L989.082 1610.19L1040.05 1597.96L1041.46 1611.05L977.145 1626.5L962.501 1490.82ZM1049.54 1463.77C1052.42 1463.08 1055 1463.53 1057.27 1465.13C1059.54 1466.73 1060.84 1469 1061.16 1471.96C1061.47 1474.85 1060.72 1477.58 1058.9 1480.16C1057.08 1482.75 1054.72 1484.38 1051.84 1485.08C1049.01 1485.75 1046.46 1485.29 1044.19 1483.69C1041.92 1482.09 1040.63 1479.85 1040.32 1476.96C1040 1474.01 1040.75 1471.24 1042.57 1468.66C1044.39 1466.08 1046.71 1464.45 1049.54 1463.77ZM1047.68 1506.61L1060.4 1503.55L1071.23 1603.91L1058.51 1606.96L1047.68 1506.61ZM1098.21 1597.43L1083.19 1458.34L1095.73 1455.33L1101.78 1511.32C1106.35 1503.4 1111.74 1497.03 1117.94 1492.2C1124.14 1487.3 1131.15 1483.92 1138.97 1482.04C1152.86 1478.71 1165.26 1481.03 1176.18 1489C1187.15 1496.91 1193.43 1508.2 1195.02 1522.9C1196.59 1537.41 1192.96 1551 1184.15 1563.65C1175.33 1576.3 1163.95 1584.3 1150 1587.65C1142 1589.57 1134.56 1589.56 1127.69 1587.61C1120.81 1585.66 1114.5 1581.79 1108.75 1575.97L1110.75 1594.42L1098.21 1597.43ZM1147.66 1575.43C1154.7 1573.75 1161 1570.43 1166.58 1565.5C1172.15 1560.5 1176.33 1554.39 1179.13 1547.16C1181.99 1539.91 1183.03 1532.72 1182.26 1525.59C1181.49 1518.45 1178.98 1512.08 1174.74 1506.48C1170.49 1500.87 1165.17 1497.01 1158.77 1494.89C1152.43 1492.69 1145.85 1492.41 1139.06 1494.04C1132.14 1495.7 1125.75 1499.09 1119.89 1504.22C1114.08 1509.28 1109.82 1515.25 1107.11 1522.15C1104.46 1529.03 1103.55 1536.28 1104.37 1543.91C1105.62 1555.53 1110.4 1564.35 1118.7 1570.37C1127.06 1576.37 1136.71 1578.06 1147.66 1575.43ZM1207.9 1468.14L1220.8 1465.05L1222.38 1479.71C1225.6 1473.01 1229.2 1467.73 1233.16 1463.87C1237.12 1459.96 1241.42 1457.45 1246.05 1456.33C1249.53 1455.5 1253.39 1455.74 1257.6 1457.06L1252.19 1469.53C1249.42 1468.99 1247.13 1468.94 1245.33 1469.38C1241.12 1470.39 1237.25 1473.15 1233.72 1477.65C1230.19 1482.09 1227.81 1488.28 1226.57 1496.21C1225.62 1502.31 1226.09 1514.06 1227.96 1531.46L1231.63 1565.4L1218.73 1568.5L1207.9 1468.14ZM1366.03 1430.18L1376.87 1530.53L1364.42 1533.52L1362.55 1516.27C1357.97 1524.12 1352.55 1530.5 1346.3 1535.41C1340.1 1540.31 1333.09 1543.69 1325.27 1545.57C1311.38 1548.9 1298.95 1546.62 1287.98 1538.72C1277.06 1530.74 1270.8 1519.37 1269.21 1504.62C1267.65 1490.17 1271.28 1476.61 1280.09 1463.96C1288.91 1451.31 1300.29 1443.31 1314.25 1439.96C1322.3 1438.03 1329.77 1438.03 1336.64 1439.98C1343.58 1441.91 1349.89 1445.79 1355.58 1451.61L1353.59 1433.17L1366.03 1430.18ZM1316.58 1452.18C1309.55 1453.86 1303.24 1457.21 1297.67 1462.2C1292.1 1467.14 1287.88 1473.23 1285.02 1480.48C1282.23 1487.71 1281.21 1494.89 1281.98 1502.02C1282.74 1509.1 1285.25 1515.43 1289.49 1521.04C1293.74 1526.64 1299.03 1530.54 1305.38 1532.74C1311.78 1534.87 1318.41 1535.1 1325.26 1533.46C1332.18 1531.8 1338.54 1528.44 1344.35 1523.39C1350.16 1518.33 1354.39 1512.37 1357.04 1505.48C1359.75 1498.59 1360.7 1491.33 1359.87 1483.7C1358.62 1472.08 1353.81 1463.27 1345.45 1457.26C1337.15 1451.24 1327.53 1449.55 1316.58 1452.18ZM1389.76 1424.48L1402.66 1421.38L1404.24 1436.05C1407.47 1429.35 1411.06 1424.07 1415.03 1420.21C1418.99 1416.3 1423.28 1413.78 1427.91 1412.67C1431.4 1411.84 1435.25 1412.08 1439.46 1413.4L1434.05 1425.87C1431.28 1425.33 1428.99 1425.28 1427.19 1425.72C1422.98 1426.73 1419.11 1429.48 1415.59 1433.99C1412.06 1438.43 1409.67 1444.62 1408.43 1452.55C1407.48 1458.65 1407.95 1470.39 1409.83 1487.8L1413.49 1521.74L1400.59 1524.84L1389.76 1424.48ZM1439.56 1412.53L1452.91 1409.32L1494.99 1478.52L1519.39 1393.36L1532.83 1390.13L1489.08 1541.25L1475.73 1544.46L1489.89 1495.64L1439.56 1412.53Z" fill="black"/>
<path d="M1069.14 1024.01L1085.66 1020.04C1092.31 1018.45 1097.5 1018.04 1101.25 1018.81C1104.99 1019.55 1108.07 1021.34 1110.48 1024.19C1112.93 1027.02 1114.37 1030.48 1114.81 1034.56C1115.22 1038.37 1114.69 1042.06 1113.2 1045.64C1111.72 1049.19 1109.31 1052.36 1105.99 1055.15C1110.52 1055.61 1114.07 1056.59 1116.65 1058.08C1119.22 1059.54 1121.31 1061.57 1122.92 1064.17C1124.56 1066.72 1125.56 1069.69 1125.93 1073.07C1126.67 1079.94 1124.83 1086.36 1120.41 1092.32C1116.02 1098.24 1109.68 1102.19 1101.4 1104.18L1078.38 1109.7L1069.14 1024.01ZM1078.25 1030.43L1081.21 1057.87L1085.99 1056.72C1091.8 1055.32 1096.02 1053.75 1098.64 1052.01C1101.25 1050.23 1103.23 1047.96 1104.57 1045.21C1105.9 1042.42 1106.41 1039.57 1106.1 1036.65C1105.67 1032.73 1103.99 1029.99 1101.06 1028.42C1098.16 1026.81 1093.78 1026.7 1087.93 1028.1L1078.25 1030.43ZM1082.14 1066.49L1085.68 1099.35L1096.05 1096.86C1102.17 1095.39 1106.59 1093.71 1109.3 1091.82C1112.02 1089.9 1114.09 1087.43 1115.52 1084.41C1116.98 1081.39 1117.55 1078.37 1117.23 1075.34C1116.82 1071.53 1115.24 1068.5 1112.51 1066.25C1109.77 1064 1106.22 1062.86 1101.85 1062.83C1098.93 1062.82 1093.93 1063.66 1086.87 1065.35L1082.14 1066.49ZM1170.15 999.759L1218.49 1076.07L1209.48 1078.23L1193.28 1053.19L1157.16 1061.87L1147.1 1093.21L1137.75 1095.45L1168.1 1000.25L1170.15 999.759ZM1171.09 1018.18L1160.02 1052.69L1188.68 1045.81L1171.09 1018.18ZM1221.15 1059.05L1227.8 1052.98C1233.83 1061.21 1240.13 1064.54 1246.71 1062.96C1249.52 1062.28 1252.08 1060.99 1254.41 1059.08C1256.73 1057.13 1258.42 1054.87 1259.47 1052.31C1260.52 1049.74 1260.9 1047.2 1260.63 1044.67C1260.32 1041.8 1259.07 1039.21 1256.87 1036.91C1253.84 1033.73 1248.56 1030.3 1241.03 1026.61C1233.46 1022.89 1228.69 1020.03 1226.72 1018.03C1223.32 1014.71 1221.37 1010.69 1220.86 1005.99C1220.46 1002.26 1220.96 998.656 1222.38 995.169C1223.8 991.681 1225.99 988.685 1228.95 986.181C1231.95 983.628 1235.31 981.905 1239.03 981.011C1242.98 980.063 1246.77 980.188 1250.41 981.387C1254.08 982.538 1258.12 985.333 1262.54 989.771L1256.27 996.714C1252.66 993.199 1249.66 991.03 1247.27 990.209C1244.92 989.379 1242.44 989.278 1239.81 989.907C1236.43 990.719 1233.77 992.433 1231.84 995.05C1229.94 997.658 1229.15 1000.5 1229.48 1003.56C1229.68 1005.43 1230.26 1007.14 1231.21 1008.71C1232.15 1010.27 1233.75 1011.84 1235.98 1013.42C1237.2 1014.24 1241.12 1016.23 1247.73 1019.38C1255.58 1023.12 1261.08 1026.8 1264.24 1030.42C1267.39 1034.05 1269.21 1038.01 1269.67 1042.33C1270.34 1048.54 1268.61 1054.49 1264.47 1060.19C1260.37 1065.88 1255.01 1069.51 1248.4 1071.1C1243.31 1072.32 1238.55 1072.05 1234.11 1070.29C1229.67 1068.48 1225.35 1064.74 1221.15 1059.05ZM1279.2 973.578L1287.58 971.568L1296.83 1057.26L1288.45 1059.27L1279.2 973.578ZM1305.7 1038.76L1312.35 1032.68C1318.38 1040.91 1324.68 1044.24 1331.26 1042.66C1334.07 1041.99 1336.64 1040.69 1338.96 1038.78C1341.28 1036.83 1342.97 1034.57 1344.02 1032.01C1345.07 1029.44 1345.45 1026.9 1345.18 1024.38C1344.87 1021.5 1343.62 1018.91 1341.42 1016.61C1338.39 1013.44 1333.11 1010 1325.58 1006.31C1318.01 1002.59 1313.24 999.732 1311.27 997.735C1307.87 994.407 1305.92 990.393 1305.41 985.694C1305.01 981.966 1305.51 978.358 1306.93 974.87C1308.35 971.383 1310.54 968.386 1313.5 965.882C1316.5 963.329 1319.86 961.606 1323.58 960.713C1327.53 959.764 1331.32 959.89 1334.96 961.088C1338.63 962.239 1342.67 965.034 1347.09 969.472L1340.82 976.415C1337.21 972.9 1334.21 970.732 1331.82 969.91C1329.47 969.08 1326.99 968.979 1324.37 969.609C1320.98 970.42 1318.33 972.134 1316.39 974.751C1314.49 977.359 1313.7 980.197 1314.03 983.265C1314.23 985.13 1314.81 986.844 1315.76 988.41C1316.7 989.975 1318.3 991.545 1320.53 993.12C1321.75 993.943 1325.67 995.931 1332.28 999.085C1340.13 1002.82 1345.63 1006.5 1348.79 1010.12C1351.94 1013.75 1353.76 1017.72 1354.22 1022.03C1354.89 1028.24 1353.16 1034.19 1349.02 1039.89C1344.92 1045.58 1339.56 1049.21 1332.95 1050.8C1327.86 1052.02 1323.1 1051.75 1318.66 1049.99C1314.22 1048.18 1309.9 1044.44 1305.7 1038.76ZM940.152 1327.45L946.802 1321.37C952.834 1329.61 959.136 1332.94 965.707 1331.36C968.518 1330.68 971.086 1329.39 973.413 1327.48C975.735 1325.52 977.42 1323.27 978.469 1320.7C979.517 1318.14 979.905 1315.6 979.632 1313.07C979.322 1310.2 978.069 1307.61 975.872 1305.31C972.84 1302.13 967.56 1298.7 960.03 1295.01C952.459 1291.29 947.689 1288.43 945.719 1286.43C942.321 1283.1 940.368 1279.09 939.861 1274.39C939.458 1270.66 939.965 1267.06 941.381 1263.57C942.797 1260.08 944.987 1257.08 947.951 1254.58C950.949 1252.03 954.309 1250.3 958.032 1249.41C961.982 1248.46 965.775 1248.59 969.412 1249.79C973.082 1250.94 977.124 1253.73 981.539 1258.17L975.274 1265.11C971.661 1261.6 968.66 1259.43 966.272 1258.61C963.922 1257.78 961.437 1257.68 958.816 1258.31C955.436 1259.12 952.776 1260.83 950.838 1263.45C948.937 1266.06 948.152 1268.9 948.483 1271.96C948.684 1273.83 949.259 1275.54 950.207 1277.11C951.156 1278.67 952.747 1280.24 954.983 1281.82C956.202 1282.64 960.118 1284.63 966.732 1287.78C974.578 1291.52 980.08 1295.2 983.238 1298.82C986.396 1302.45 988.207 1306.41 988.672 1310.72C989.343 1316.94 987.609 1322.89 983.469 1328.59C979.368 1334.27 974.013 1337.91 967.404 1339.5C962.314 1340.72 957.55 1340.45 953.112 1338.69C948.671 1336.88 944.35 1333.14 940.152 1327.45ZM1062.08 1263.04L1056.19 1268.58C1049.92 1262.47 1042.06 1260.55 1032.6 1262.82C1025.04 1264.64 1019.03 1268.63 1014.55 1274.81C1010.11 1280.97 1008.27 1287.61 1009.04 1294.72C1009.54 1299.34 1011.15 1303.42 1013.87 1306.95C1016.62 1310.47 1020.12 1312.88 1024.35 1314.17C1028.62 1315.46 1033.24 1315.5 1038.22 1314.31C1047.33 1312.12 1054.38 1306.62 1059.35 1297.82L1066.13 1300.55C1063.66 1305.81 1060.05 1310.3 1055.31 1314.03C1050.61 1317.71 1045.06 1320.32 1038.68 1321.85C1028.88 1324.2 1020.41 1322.97 1013.26 1318.15C1006.12 1313.33 1002.05 1306.36 1001.07 1297.23C1000.41 1291.09 1001.29 1285.04 1003.73 1279.08C1006.2 1273.07 1009.91 1267.95 1014.87 1263.73C1019.83 1259.52 1025.58 1256.62 1032.11 1255.05C1036.22 1254.07 1040.24 1253.76 1044.17 1254.13C1048.15 1254.49 1051.57 1255.38 1054.46 1256.8C1057.34 1258.22 1059.88 1260.3 1062.08 1263.04ZM1105.21 1237.5C1114.75 1235.21 1123.03 1236.85 1130.06 1242.42C1136.45 1247.5 1140.12 1254.44 1141.08 1263.26C1142.03 1272.11 1139.85 1280.59 1134.52 1288.68C1129.24 1296.72 1121.86 1301.88 1112.41 1304.15C1102.91 1306.43 1094.79 1304.99 1088.03 1299.84C1081.32 1294.64 1077.48 1287.61 1076.52 1278.76C1075.58 1269.98 1077.6 1261.68 1082.6 1253.87C1088.1 1245.26 1095.64 1239.8 1105.21 1237.5ZM1106.07 1245.48C1099.46 1247.07 1094.06 1250.94 1089.85 1257.09C1085.64 1263.24 1083.92 1269.87 1084.69 1276.98C1085.18 1281.56 1086.73 1285.57 1089.32 1289.01C1091.91 1292.45 1095.17 1294.82 1099.09 1296.11C1103 1297.36 1107.16 1297.46 1111.57 1296.4C1115.97 1295.34 1119.9 1293.3 1123.36 1290.28C1126.81 1287.22 1129.4 1283.45 1131.14 1278.97C1132.88 1274.49 1133.5 1269.96 1133 1265.38C1132.24 1258.27 1129.19 1252.78 1123.86 1248.92C1118.57 1245.05 1112.64 1243.91 1106.07 1245.48ZM1156.92 1202.62L1164.95 1200.69L1167.49 1224.23L1180.14 1221.19L1180.89 1228.18L1168.25 1231.22L1174.33 1287.61L1166.3 1289.54L1160.21 1233.14L1149.33 1235.76L1148.58 1228.77L1159.46 1226.15L1156.92 1202.62ZM1196.46 1193.13L1204.49 1191.2L1207.03 1214.73L1219.68 1211.7L1220.43 1218.69L1207.79 1221.72L1213.87 1278.11L1205.84 1280.04L1199.75 1223.65L1188.87 1226.26L1188.12 1219.27L1199 1216.66L1196.46 1193.13ZM1263.5 1208.29L1258.96 1214.94C1254.25 1211.72 1249.86 1210.61 1245.8 1211.58C1243.21 1212.2 1241.08 1213.61 1239.41 1215.8C1237.78 1217.99 1237.09 1220.25 1237.34 1222.58C1237.56 1224.64 1238.53 1226.41 1240.25 1227.91C1241.98 1229.45 1245.41 1230.92 1250.55 1232.32C1256.81 1234.04 1261.16 1236.1 1263.61 1238.5C1266.01 1240.95 1267.42 1244.02 1267.81 1247.71C1268.38 1252.92 1267.07 1257.75 1263.89 1262.22C1260.71 1266.69 1256.44 1269.57 1251.08 1270.85C1247.51 1271.71 1244.01 1271.74 1240.57 1270.93C1237.17 1270.11 1234.25 1268.56 1231.82 1266.27L1236.21 1259.24C1240.78 1262.97 1245.35 1264.28 1249.9 1263.19C1253.09 1262.42 1255.7 1260.72 1257.71 1258.09C1259.73 1255.45 1260.58 1252.72 1260.27 1249.88C1260.02 1247.55 1259.06 1245.65 1257.38 1244.18C1255.71 1242.75 1252.12 1241.3 1246.62 1239.83C1240.72 1238.22 1236.61 1236.22 1234.28 1233.83C1231.96 1231.44 1230.6 1228.4 1230.2 1224.71C1229.68 1219.89 1230.85 1215.51 1233.69 1211.56C1236.58 1207.6 1240.47 1205.03 1245.37 1203.85C1251.07 1202.49 1257.11 1203.96 1263.5 1208.29ZM1336.17 1158.63L1345.65 1246.48L1337.79 1248.36L1336.62 1237.47C1333.72 1242.43 1330.3 1246.46 1326.35 1249.56C1322.43 1252.65 1318.01 1254.79 1313.07 1255.97C1304.3 1258.08 1296.44 1256.64 1289.52 1251.65C1282.62 1246.61 1278.67 1239.43 1277.66 1230.11C1276.68 1220.98 1278.97 1212.42 1284.54 1204.43C1290.1 1196.44 1297.29 1191.39 1306.11 1189.27C1311.2 1188.05 1315.91 1188.06 1320.25 1189.28C1324.63 1190.5 1328.62 1192.95 1332.21 1196.63L1328.31 1160.51L1336.17 1158.63ZM1307.58 1196.99C1303.14 1198.05 1299.16 1200.17 1295.64 1203.32C1292.12 1206.44 1289.45 1210.28 1287.65 1214.86C1285.88 1219.43 1285.24 1223.97 1285.73 1228.47C1286.21 1232.94 1287.79 1236.94 1290.47 1240.48C1293.15 1244.02 1296.5 1246.48 1300.51 1247.87C1304.55 1249.21 1308.73 1249.36 1313.06 1248.32C1317.43 1247.28 1321.45 1245.16 1325.12 1241.96C1328.79 1238.77 1331.46 1235 1333.13 1230.66C1334.85 1226.3 1335.44 1221.72 1334.92 1216.9C1334.13 1209.56 1331.09 1203.99 1325.81 1200.2C1320.57 1196.4 1314.49 1195.33 1307.58 1196.99ZM1418.69 1163.92L1425.53 1227.3L1417.67 1229.19L1416.5 1218.29C1413.6 1223.25 1410.18 1227.28 1406.23 1230.38C1402.31 1233.47 1397.89 1235.61 1392.95 1236.8C1384.17 1238.9 1376.32 1237.46 1369.39 1232.47C1362.5 1227.43 1358.55 1220.25 1357.54 1210.93C1356.56 1201.8 1358.85 1193.25 1364.42 1185.26C1369.98 1177.26 1377.17 1172.21 1385.98 1170.1C1391.07 1168.87 1395.79 1168.88 1400.13 1170.11C1404.51 1171.33 1408.5 1173.78 1412.09 1177.46L1410.83 1165.8L1418.69 1163.92ZM1387.46 1177.81C1383.02 1178.88 1379.03 1180.99 1375.52 1184.14C1372 1187.26 1369.33 1191.11 1367.53 1195.68C1365.76 1200.25 1365.12 1204.79 1365.61 1209.29C1366.09 1213.76 1367.67 1217.76 1370.35 1221.3C1373.03 1224.84 1376.38 1227.31 1380.38 1228.7C1384.43 1230.04 1388.61 1230.19 1392.94 1229.15C1397.31 1228.1 1401.33 1225.98 1405 1222.79C1408.67 1219.59 1411.34 1215.83 1413.01 1211.48C1414.72 1207.12 1415.32 1202.54 1414.8 1197.72C1414.01 1190.38 1410.97 1184.82 1405.69 1181.02C1400.45 1177.22 1394.37 1176.15 1387.46 1177.81ZM1432.86 1135.41L1440.84 1133.5L1450.32 1221.35L1442.34 1223.26L1432.86 1135.41ZM1516.82 1183.81L1523.93 1185.81C1522.2 1190.76 1520.04 1194.95 1517.45 1198.36C1514.86 1201.77 1511.83 1204.63 1508.38 1206.93C1504.92 1209.2 1500.92 1210.87 1496.36 1211.97C1486.25 1214.39 1477.99 1212.91 1471.56 1207.52C1465.13 1202.09 1461.46 1195.11 1460.53 1186.56C1459.67 1178.52 1461.3 1170.78 1465.45 1163.33C1470.7 1153.86 1478.45 1147.9 1488.71 1145.43C1499.27 1142.9 1508.14 1144.97 1515.33 1151.65C1520.44 1156.36 1523.5 1163.04 1524.51 1171.68L1468.79 1185.06C1469.74 1192.4 1472.69 1197.91 1477.64 1201.58C1482.59 1205.21 1488.34 1206.24 1494.87 1204.68C1498.02 1203.92 1501.02 1202.62 1503.86 1200.78C1506.74 1198.94 1509.12 1196.83 1511.01 1194.47C1512.9 1192.1 1514.83 1188.55 1516.82 1183.81ZM1514.97 1166.74C1513.44 1162.65 1511.51 1159.54 1509.18 1157.43C1506.88 1155.32 1503.98 1153.86 1500.46 1153.07C1496.95 1152.28 1493.35 1152.33 1489.67 1153.21C1483.59 1154.67 1478.58 1157.93 1474.65 1162.97C1471.77 1166.65 1469.83 1171.6 1468.82 1177.82L1514.97 1166.74Z" fill="black"/>
</svg>
